<?xml version="1.0" standalone="no"?>
<!DOCTYPE svg PUBLIC "-//W3C//DTD SVG 1.1//EN" "http://www.w3.org/Graphics/SVG/1.1/DTD/svg11.dtd" >
<svg xmlns="http://www.w3.org/2000/svg" xmlns:xlink="http://www.w3.org/1999/xlink" version="1.1">
<metadata>
Created by FontForge 20170924 at Mon Jul 30 15:33:18 2018
 By www-data
Copyright (c) 2015 by MaryamSoft.com. All rights reserved.
</metadata>
<defs>
<font id="Cinema" horiz-adv-x="0" >
  <font-face 
    font-family="Cinema"
    font-weight="400"
    font-stretch="normal"
    units-per-em="2048"
    panose-1="1 0 5 0 0 0 0 2 0 2"
    ascent="1556"
    descent="-492"
    bbox="-370 -1171 2736 1753.43"
    underline-thickness="143"
    underline-position="-284"
    unicode-range="U+001D-FEFC"
  />
<missing-glyph horiz-adv-x="1229" 
d="M102 -362v1806h1024v-1806h-1024zM1012 1329h-795v-1577h795v1577z" />
    <glyph glyph-name="uniFEFB" unicode="&#xfedf;&#xfe8e;" horiz-adv-x="1083" arabic-form="isolated" 
d="M1001 1006v-730q0 -73 -22.5 -125.5t-57 -86t-74.5 -49t-75 -15.5h-690v295h262l-211 516l275 113l249 -617q23 10 36.5 32.5t13.5 70.5v596h294z" />
    <glyph glyph-name="uniFEFC" unicode="&#xfee0;&#xfe8e;" horiz-adv-x="1139" arabic-form="final" 
d="M995 0q-26 0 -64 11.5t-77 43.5q-23 -18 -59.5 -36.5t-81.5 -18.5h-631v295h262l-209 516l273 113l249 -617q23 10 36.5 32.5t13.5 70.5v596h294v-596q0 -45 11.5 -69t30 -34t43 -11t53.5 -1v-295h-144z" />
    <glyph glyph-name="uniFEF5" unicode="&#xfedf;&#xfe82;" horiz-adv-x="1073" arabic-form="isolated" 
d="M1012 1006v-730q0 -73 -23.5 -126.5t-59.5 -86t-77 -48t-74 -15.5h-696v295h141v620h299v-620h84q19 0 38.5 3t35.5 15.5t26.5 35t10.5 61.5v596h295zM-14 1141q67 55 121.5 81.5t100.5 32t86 -5t79 -26.5q24 -11 47.5 -17t51.5 -2t63.5 24.5t87.5 63.5l114 -137
q-75 -61 -136.5 -91t-113 -36t-95.5 4t-85 27q-22 8 -41.5 14t-42 3t-51.5 -19.5t-70 -50.5z" />
    <glyph glyph-name="uniFEF6" unicode="&#xfee0;&#xfe82;" horiz-adv-x="1110" arabic-form="final" 
d="M1006 0q-43 0 -80 16.5t-62 38.5q-22 -18 -59 -36.5t-84 -18.5h-639v295h141v620h297v-620h86q19 0 38.5 3t34.5 15.5t25.5 35t10.5 61.5v596h295v-596q0 -70 27.5 -91.5t62.5 -23.5h10v-295h-104zM-2 1141q68 55 122 81.5t100 32t86 -5t79 -26.5q25 -11 48.5 -17t51 -2
t63.5 24.5t87 63.5l115 -137q-76 -61 -137.5 -91t-112.5 -36t-95.5 4t-85.5 27q-22 8 -41.5 14t-42 3t-51 -19.5t-69.5 -50.5z" />
    <glyph glyph-name="uniFEF7" unicode="&#xfedf;&#xfe84;" horiz-adv-x="1073" arabic-form="isolated" 
d="M1012 1006v-730q0 -73 -23.5 -126.5t-59.5 -86t-77 -48t-74 -15.5h-696v295h141v620h299v-620h84q19 0 38.5 3t35.5 15.5t26.5 35t10.5 61.5v596h295zM608 1249l-397 -235l-84 141l66 41q-54 47 -68 101.5t-4 97.5q8 37 30.5 70.5t61.5 58t92 38t121 7.5l-14 -164
q-60 4 -91.5 -13.5t-35.5 -33.5q-4 -12 12 -31.5t51 -38.5l176 105z" />
    <glyph glyph-name="uniFEF8" unicode="&#xfee0;&#xfe84;" horiz-adv-x="1110" arabic-form="final" 
d="M1006 0q-43 0 -80 16.5t-62 38.5q-22 -18 -59 -36.5t-84 -18.5h-639v295h141v620h297v-620h86q19 0 38.5 3t34.5 15.5t25.5 35t10.5 61.5v596h295v-596q0 -70 27.5 -91.5t62.5 -23.5h10v-295h-104zM621 1249l-398 -235l-84 141l66 41q-53 47 -67.5 101.5t-4.5 97.5
q8 37 30.5 70.5t61.5 58t92.5 38t120.5 7.5l-14 -164q-59 4 -91 -13.5t-36 -33.5q-4 -12 12.5 -31.5t50.5 -38.5l177 105z" />
    <glyph glyph-name="uniFEF9" unicode="&#xfedf;&#xfe88;" horiz-adv-x="1073" arabic-form="isolated" 
d="M1012 1006v-730q0 -73 -23.5 -126.5t-59.5 -86t-77 -48t-74 -15.5h-696v295h141v620h299v-620h84q19 0 38.5 3t35.5 15.5t26.5 35t10.5 61.5v596h295zM555 -438l-397 -238l-84 141l65 41q-53 48 -67.5 102t-3.5 97q8 37 30.5 71t61.5 58.5t92 37.5t121 7l-15 -164
q-59 4 -90.5 -13t-36.5 -34q-4 -10 12.5 -30.5t51.5 -36.5l176 104z" />
    <glyph glyph-name="uniFEFA" unicode="&#xfee0;&#xfe88;" horiz-adv-x="1110" arabic-form="final" 
d="M1006 0q-43 0 -80 16.5t-62 38.5q-22 -18 -59 -36.5t-84 -18.5h-639v295h141v620h297v-620h86q19 0 38.5 3t34.5 15.5t25.5 35t10.5 61.5v596h295v-596q0 -70 27.5 -91.5t62.5 -23.5h10v-295h-104zM592 -451l-397 -237l-84 141l65 41q-53 47 -67.5 101.5t-4.5 97.5
q9 37 31.5 70.5t61.5 58t92 38t121 7.5l-15 -164q-59 4 -91 -13.5t-36 -33.5q-4 -10 12.5 -30.5t51.5 -37.5l176 105z" />
    <glyph glyph-name="uni0633_uni06CC.isol" unicode="&#xfeb3;&#xfbfd;" horiz-adv-x="2535" 
d="M2474 512v-223q0 -275 -285 -289h-98q-123 0 -205 43q-8 6 -17 10t-14 13q-6 -9 -14 -13t-16 -10q-74 -43 -205 -43h-23q-43 0 -92 4t-97 22.5t-93 56.5t-78 107q-4 13 -16.5 35.5t-28.5 50.5l-176 -79l235 -217l-137 -111q-51 -41 -116.5 -77t-137.5 -61.5t-148.5 -41
t-150.5 -15.5q-110 0 -210.5 38t-172.5 124q-53 64 -73.5 136.5t-21.5 146.5t12.5 141.5t31.5 122.5t34.5 93t20.5 48l269 -137q-15 -31 -32.5 -80t-27.5 -101t-7 -100.5t28 -78.5q22 -25 61 -38.5t87 -14.5t102.5 9.5t107.5 30.5l-281 262l830 390q41 -74 76 -138
q28 -53 57 -104t39 -70q14 -22 34.5 -39.5t61.5 -17.5h33q45 0 63.5 26.5t26.5 51.5v24v56h297v-56v-24q4 -25 22.5 -51.5t61.5 -26.5q27 0 44 10t26.5 25.5t12.5 33t3 33.5v113h297z" />
    <glyph glyph-name="uni0633_uni06CC.fina" unicode="&#xfeb4;&#xfbfd;" horiz-adv-x="2736" 
d="M2576 0q-59 0 -116 41q-64 -41 -117 -41h-297q-47 0 -87 22.5t-63 43.5q-22 -23 -63 -44.5t-84 -21.5h-465l-104 240l-158 -56l184 -221l-119 -92q-45 -35 -105 -72t-130 -66.5t-146.5 -48t-154.5 -18.5q-74 0 -146.5 20.5t-140.5 71.5q-76 56 -114.5 116t-54 122.5
t-12.5 126t15 125.5q11 55 25 103t27.5 85t23.5 59.5t10 24.5l267 -127q-15 -26 -25 -59q-23 -60 -39 -141q-8 -48 -10 -77.5t4 -51t21.5 -38t39.5 -34.5q33 -25 74 -31t85 1t89 23.5t86 37.5l-252 301l815 280l138 -309h163q19 0 37.5 2t33.5 12t25.5 31.5t10.5 60.5v78
h299v-78q0 -36 9 -56.5t22.5 -32t32 -14.5t36.5 -3h23q18 0 37.5 2t35 12t25.5 31.5t10 60.5v109h4h295v-109q0 -39 9.5 -60.5t25 -31.5t34.5 -12t38 -2h53v-295h-160z" />
    <glyph glyph-name="uni0635_uni06CC.isol" unicode="&#xfebb;&#xfbfd;" horiz-adv-x="2482" 
d="M2286 664q36 -46 66 -113.5t47.5 -141t19.5 -144t-19 -122.5q-20 -49 -54 -76.5t-79 -43t-99 -19.5t-116 -4h-446q-43 0 -93.5 3t-101.5 21.5t-96 56.5t-78 109q-6 13 -17.5 35.5t-27.5 50.5l-178 -79l233 -217l-137 -111q-51 -41 -115.5 -76t-136.5 -61.5t-148.5 -42
t-152.5 -15.5q-111 0 -209 38t-170 124q-51 64 -72.5 136.5t-22.5 146.5t12.5 141.5t30.5 122.5t33.5 93t22.5 48l264 -137q-14 -31 -30.5 -80t-25.5 -101t-7 -100.5t27 -78.5q20 -25 58 -38.5t86 -14.5t102.5 9.5t109.5 30.5l-281 260l830 392l203 -371h161l-170 143
q31 37 84.5 94.5t117 113.5t133 100.5t134.5 56.5q84 16 163 -22t145 -117zM2052 295q29 0 45.5 6t20.5 12q0 21 -8.5 50.5t-22.5 58.5t-31.5 51.5t-32.5 30.5q-16 -6 -43.5 -25.5t-59.5 -47.5t-67.5 -63.5t-68.5 -72.5h268z" />
    <glyph glyph-name="uni0635_uni06CC.fina" unicode="&#xfebc;&#xfbfd;" horiz-adv-x="2464" 
d="M2464 0q-54 0 -121.5 14.5t-128.5 51.5q-47 -31 -106.5 -48.5t-125.5 -17.5h-696l-106 238l-154 -54l180 -219l-119 -92q-45 -35 -105 -72t-130 -66.5t-145.5 -49t-153.5 -19.5q-76 0 -148.5 20.5t-140.5 71.5q-74 56 -113.5 116t-55 122.5t-12.5 126t15 125.5
q11 55 26 103t28.5 85t23.5 58.5t10 25.5l267 -127q-13 -26 -25 -59q-10 -29 -21.5 -65t-17.5 -76q-10 -48 -11 -77.5t5 -50t20.5 -37t38.5 -34.5q33 -25 75 -31t87 1t89 23.5t83 37.5l-250 299l813 280l138 -309h139l-168 137q31 37 82 93.5t114.5 111.5t132 99t134.5 55
q82 14 158.5 -22t142.5 -116q47 -59 83 -138t46 -163q8 -33 29.5 -46t93.5 -11v-295zM1982 295q27 0 44.5 5t23.5 9q0 19 -9 48.5t-23.5 58t-32 51t-31.5 31.5q-17 -6 -43.5 -24.5t-58 -46.5t-66.5 -61.5t-68 -70.5h264z" />
    <glyph glyph-name="uni0634_uni06CC.isol" unicode="&#xfeb7;&#xfbfd;" horiz-adv-x="2535" 
d="M2474 512v-223q0 -275 -285 -289h-98q-123 0 -205 43q-8 6 -17 10t-14 13q-6 -9 -14 -13t-16 -10q-74 -43 -205 -43h-23q-43 0 -92 4t-97 22.5t-93 56.5t-78 107q-4 13 -16.5 35.5t-28.5 50.5l-176 -79l235 -217l-137 -111q-51 -41 -116.5 -77t-137.5 -61.5t-148.5 -41
t-150.5 -15.5q-110 0 -210.5 38t-172.5 124q-53 64 -73.5 136.5t-21.5 146.5t12.5 141.5t31.5 122.5t34.5 93t20.5 48l269 -137q-15 -31 -32.5 -80t-27.5 -101t-7 -100.5t28 -78.5q22 -25 61 -38.5t87 -14.5t102.5 9.5t107.5 30.5l-281 262l830 390q41 -74 76 -138
q28 -53 57 -104t39 -70q14 -22 34.5 -39.5t61.5 -17.5h33q45 0 63.5 26.5t26.5 51.5v24v56h297v-56v-24q4 -25 22.5 -51.5t61.5 -26.5q27 0 44 10t26.5 25.5t12.5 33t3 33.5v113h297zM2161 940v-223h-582v223h176q-14 21 -22.5 43.5t-8.5 48.5q0 60 42 101t106 41
q59 0 101 -41t42 -101q0 -26 -8 -48.5t-22 -43.5h176z" />
    <glyph glyph-name="uni0634_uni06CC.fina" unicode="&#xfeb8;&#xfbfd;" horiz-adv-x="2736" 
d="M2576 0q-59 0 -116 41q-64 -41 -117 -41h-297q-47 0 -87 22.5t-63 43.5q-22 -23 -63 -44.5t-84 -21.5h-465l-104 240l-158 -56l184 -221l-119 -92q-45 -35 -105 -72t-130 -66.5t-146.5 -48t-154.5 -18.5q-74 0 -146.5 20.5t-140.5 71.5q-76 56 -114.5 116t-54 122.5
t-12.5 126t15 125.5q11 55 25 103t27.5 85t23.5 59.5t10 24.5l267 -127q-15 -26 -25 -59q-23 -60 -39 -141q-8 -48 -10 -77.5t4 -51t21.5 -38t39.5 -34.5q33 -25 74 -31t85 1t89 23.5t86 37.5l-252 301l815 280l138 -309h163q19 0 37.5 2t33.5 12t25.5 31.5t10.5 60.5v78
h299v-78q0 -36 9 -56.5t22.5 -32t32 -14.5t36.5 -3h23q18 0 37.5 2t35 12t25.5 31.5t10 60.5v109h4h295v-109q0 -39 9.5 -60.5t25 -31.5t34.5 -12t38 -2h53v-295h-160zM2193 940v-223h-581v223h176q-14 21 -22.5 43.5t-8.5 48.5q0 60 42 101t106 41q59 0 101 -41t42 -101
q0 -26 -8 -48.5t-23 -43.5h176z" />
    <glyph glyph-name="uni0636_uni06CC.isol" unicode="&#xfebf;&#xfbfd;" horiz-adv-x="2482" 
d="M2286 664q36 -46 66 -113.5t47.5 -141t19.5 -144t-19 -122.5q-20 -49 -54 -76.5t-79 -43t-99 -19.5t-116 -4h-446q-43 0 -93.5 3t-101.5 21.5t-96 56.5t-78 109q-6 13 -17.5 35.5t-27.5 50.5l-178 -79l233 -217l-137 -111q-51 -41 -115.5 -76t-136.5 -61.5t-148.5 -42
t-152.5 -15.5q-111 0 -209 38t-170 124q-51 64 -72.5 136.5t-22.5 146.5t12.5 141.5t30.5 122.5t33.5 93t22.5 48l264 -137q-14 -31 -30.5 -80t-25.5 -101t-7 -100.5t27 -78.5q20 -25 58 -38.5t86 -14.5t102.5 9.5t109.5 30.5l-281 260l830 392l203 -371h161l-170 143
q31 37 84.5 94.5t117 113.5t133 100.5t134.5 56.5q84 16 163 -22t145 -117zM2052 295q29 0 45.5 6t20.5 12q0 21 -8.5 50.5t-22.5 58.5t-31.5 51.5t-32.5 30.5q-16 -6 -43.5 -25.5t-59.5 -47.5t-67.5 -63.5t-68.5 -72.5h268zM1587 815q-76 0 -127 51.5t-51 126.5
q0 74 51 125t127 51q74 0 125 -51t51 -125q0 -75 -51 -126.5t-125 -51.5z" />
    <glyph glyph-name="uni0636_uni06CC.fina" unicode="&#xfec0;&#xfbfd;" horiz-adv-x="2464" 
d="M2464 0q-54 0 -121.5 14.5t-128.5 51.5q-47 -31 -106.5 -48.5t-125.5 -17.5h-696l-106 238l-154 -54l180 -219l-119 -92q-45 -35 -105 -72t-130 -66.5t-145.5 -49t-153.5 -19.5q-76 0 -148.5 20.5t-140.5 71.5q-74 56 -113.5 116t-55 122.5t-12.5 126t15 125.5
q11 55 26 103t28.5 85t23.5 58.5t10 25.5l267 -127q-13 -26 -25 -59q-10 -29 -21.5 -65t-17.5 -76q-10 -48 -11 -77.5t5 -50t20.5 -37t38.5 -34.5q33 -25 75 -31t87 1t89 23.5t83 37.5l-250 299l813 280l138 -309h139l-168 137q31 37 82 93.5t114.5 111.5t132 99t134.5 55
q82 14 158.5 -22t142.5 -116q47 -59 83 -138t46 -163q8 -33 29.5 -46t93.5 -11v-295zM1982 295q27 0 44.5 5t23.5 9q0 19 -9 48.5t-23.5 58t-32 51t-31.5 31.5q-17 -6 -43.5 -24.5t-58 -46.5t-66.5 -61.5t-68 -70.5h264zM1518 819q-76 0 -127.5 51.5t-51.5 126.5
q0 74 51.5 125.5t127.5 51.5q73 0 124.5 -51.5t51.5 -125.5q0 -75 -51.5 -126.5t-124.5 -51.5z" />
    <glyph glyph-name="uni0646_uni06CC.fina" unicode="&#xfee8;&#xfbfd;" horiz-adv-x="1618" 
d="M1595 0q-41 0 -89 4t-96 22.5t-91 56.5t-74 107q-8 13 -21.5 35.5t-29.5 50.5l-176 -79l235 -217l-139 -111q-53 -41 -117.5 -77t-136.5 -61.5t-148.5 -41t-152.5 -15.5q-106 0 -205.5 38t-173.5 124q-53 64 -74.5 136.5t-22.5 146.5t12.5 141.5t32.5 122.5t36.5 93
t25.5 48l263 -137q-15 -31 -32.5 -80t-27.5 -101t-7 -100.5t30 -78.5q20 -25 58 -38.5t85 -14.5t102.5 9.5t108.5 30.5l-281 260l832 392q39 -76 76 -140q28 -53 58 -104t40 -70q10 -22 31.5 -39.5t62.5 -17.5h29v-295h-23zM1182 813q-76 0 -127 51t-51 127q0 74 51 125
t127 51q73 0 124.5 -51t51.5 -125q0 -76 -51.5 -127t-124.5 -51z" />
    <glyph glyph-name="uni062A_uni06CC.fina" unicode="&#xfe98;&#xfbfd;" horiz-adv-x="1618" 
d="M1595 0q-41 0 -89 4t-96 22.5t-91 56.5t-74 107q-8 13 -21.5 35.5t-29.5 50.5l-176 -79l235 -217l-139 -111q-53 -41 -117.5 -77t-136.5 -61.5t-148.5 -41t-152.5 -15.5q-106 0 -205.5 38t-173.5 124q-53 64 -74.5 136.5t-22.5 146.5t12.5 141.5t32.5 122.5t36.5 93
t25.5 48l263 -137q-15 -31 -32.5 -80t-27.5 -101t-7 -100.5t30 -78.5q20 -25 58 -38.5t85 -14.5t102.5 9.5t108.5 30.5l-281 260l832 392q39 -76 76 -140q28 -53 58 -104t40 -70q10 -22 31.5 -39.5t62.5 -17.5h29v-295h-23zM920 1071h524v-252h-524v252z" />
    <glyph glyph-name="uni062B_uni06CC.fina" unicode="&#xfe9c;&#xfbfd;" horiz-adv-x="1618" 
d="M1595 0q-41 0 -89 4t-96 22.5t-91 56.5t-74 107q-8 13 -21.5 35.5t-29.5 50.5l-176 -79l235 -217l-139 -111q-53 -41 -117.5 -77t-136.5 -61.5t-148.5 -41t-152.5 -15.5q-106 0 -205.5 38t-173.5 124q-53 64 -74.5 136.5t-22.5 146.5t12.5 141.5t32.5 122.5t36.5 93
t25.5 48l263 -137q-15 -31 -32.5 -80t-27.5 -101t-7 -100.5t30 -78.5q20 -25 58 -38.5t85 -14.5t102.5 9.5t108.5 30.5l-281 260l832 392q39 -76 76 -140q28 -53 58 -104t40 -70q10 -22 31.5 -39.5t62.5 -17.5h29v-295h-23zM1473 1042v-223h-582v223h176q-14 21 -22.5 43.5
t-8.5 49.5q0 59 42 100t106 41q59 0 101 -41t42 -100q0 -27 -8 -49.5t-23 -43.5h177z" />
    <glyph glyph-name="uni0644_uni06CC.fina" unicode="&#xfee0;&#xfbfd;" horiz-adv-x="1694" 
d="M1477 0q-35 0 -75 15.5t-75 49t-57.5 87t-22.5 127.5v137l-239 -127l180 -205l-121 -96q-12 -11 -66.5 -49.5t-133.5 -79.5t-176 -74t-197 -33q-33 0 -66 4t-63 17q-48 14 -102 44.5t-98 87t-67.5 142.5t-7.5 211q6 55 18.5 105.5t23.5 88t20.5 60.5t9.5 25l270 -109
q-10 -29 -20 -63q-11 -29 -20 -67t-13 -79q-8 -53 -3 -84t16 -48t27.5 -24.5t31.5 -13.5q30 -10 67 -6t77 16.5t82 31t79 40.5l-211 240l702 377v258h295v-596q0 -37 9.5 -59.5t23.5 -35t32.5 -16.5t37.5 -4h49v-295h-217z" />
    <glyph glyph-name="uni0628_uni06CC.fina" unicode="&#xfe92;&#xfbfd;" horiz-adv-x="1618" 
d="M1595 0q-41 0 -89 4t-96 22.5t-91 56.5t-74 107q-8 13 -21.5 35.5t-29.5 50.5l-176 -79l235 -217l-139 -111q-53 -41 -117.5 -77t-136.5 -61.5t-148.5 -41t-152.5 -15.5q-106 0 -205.5 38t-173.5 124q-53 64 -74.5 136.5t-22.5 146.5t12.5 141.5t32.5 122.5t36.5 93
t25.5 48l263 -137q-15 -31 -32.5 -80t-27.5 -101t-7 -100.5t30 -78.5q20 -25 58 -38.5t85 -14.5t102.5 9.5t108.5 30.5l-281 260l832 392q39 -76 76 -140q28 -53 58 -104t40 -70q10 -22 31.5 -39.5t62.5 -17.5h29v-295h-23zM1311 -532q-76 0 -127 51t-51 127q0 73 51 124.5
t127 51.5q73 0 124.5 -51.5t51.5 -124.5q0 -76 -51.5 -127t-124.5 -51z" />
    <glyph glyph-name="uni0649_uni06CC.fina" unicode="&#xfbe9;&#xfbfd;" horiz-adv-x="1618" 
d="M1595 0q-41 0 -89 4t-96 22.5t-91 56.5t-74 107q-8 13 -21.5 35.5t-29.5 50.5l-176 -79l235 -217l-139 -111q-53 -41 -117.5 -77t-136.5 -61.5t-148.5 -41t-152.5 -15.5q-106 0 -205.5 38t-173.5 124q-53 64 -74.5 136.5t-22.5 146.5t12.5 141.5t32.5 122.5t36.5 93
t25.5 48l263 -137q-15 -31 -32.5 -80t-27.5 -101t-7 -100.5t30 -78.5q20 -25 58 -38.5t85 -14.5t102.5 9.5t108.5 30.5l-281 260l832 392q39 -76 76 -140q28 -53 58 -104t40 -70q10 -22 31.5 -39.5t62.5 -17.5h29v-295h-23z" />
    <glyph glyph-name="uni06CC_uni06CC.fina" unicode="&#xfbff;&#xfbfd;" horiz-adv-x="1618" 
d="M1595 0q-41 0 -89 4t-96 22.5t-91 56.5t-74 107q-8 13 -21.5 35.5t-29.5 50.5l-176 -79l235 -217l-139 -111q-53 -41 -117.5 -77t-136.5 -61.5t-148.5 -41t-152.5 -15.5q-106 0 -205.5 38t-173.5 124q-53 64 -74.5 136.5t-22.5 146.5t12.5 141.5t32.5 122.5t36.5 93
t25.5 48l263 -137q-15 -31 -32.5 -80t-27.5 -101t-7 -100.5t30 -78.5q20 -25 58 -38.5t85 -14.5t102.5 9.5t108.5 30.5l-281 260l832 392q39 -76 76 -140q28 -53 58 -104t40 -70q10 -22 31.5 -39.5t62.5 -17.5h29v-295h-23zM1049 -223h524v-252h-524v252z" />
    <glyph glyph-name="uni067E_uni06CC.fina" unicode="&#xfb59;&#xfbfd;" horiz-adv-x="1618" 
d="M1595 0q-41 0 -89 4t-96 22.5t-91 56.5t-74 107q-8 13 -21.5 35.5t-29.5 50.5l-176 -79l235 -217l-139 -111q-53 -41 -117.5 -77t-136.5 -61.5t-148.5 -41t-152.5 -15.5q-106 0 -205.5 38t-173.5 124q-53 64 -74.5 136.5t-22.5 146.5t12.5 141.5t32.5 122.5t36.5 93
t25.5 48l263 -137q-15 -31 -32.5 -80t-27.5 -101t-7 -100.5t30 -78.5q20 -25 58 -38.5t85 -14.5t102.5 9.5t108.5 30.5l-281 260l832 392q39 -76 76 -140q28 -53 58 -104t40 -70q10 -22 31.5 -39.5t62.5 -17.5h29v-295h-23zM1425 -446q15 -21 23 -43.5t8 -49.5
q0 -59 -42 -100t-101 -41q-64 0 -106 41t-42 100q0 27 8.5 49.5t22.5 43.5h-176v223h582v-223h-177z" />
    <glyph glyph-name="uni0649_uni06CC.isol" unicode="&#xfbe8;&#xfbfd;" horiz-adv-x="1366" 
d="M543 -324q-99 0 -189 32t-159 110q-56 61 -80.5 131.5t-29.5 143.5t5 140.5t24.5 123t30 93t19.5 50.5l270 -127l-133 61l133 -61q-14 -29 -28.5 -78t-21.5 -101.5t-2 -100.5t32 -77q22 -24 61 -34.5t88 -8.5t103.5 16.5t109.5 39.5l-291 262l453 190l-90 238l280 100
l185 -502l-283 -118l211 -191l-123 -110q-53 -45 -120.5 -85t-142.5 -71t-153.5 -48.5t-158.5 -17.5z" />
    <glyph glyph-name="uni0646_uni06CC.isol" unicode="&#xfee7;&#xfbfd;" horiz-adv-x="1366" 
d="M543 -324q-99 0 -189 32t-159 110q-56 61 -80.5 131.5t-29.5 143.5t5 140.5t24.5 123t30 93t19.5 50.5l270 -127l-133 61l133 -61q-14 -29 -28.5 -78t-21.5 -101.5t-2 -100.5t32 -77q22 -24 61 -34.5t88 -8.5t103.5 16.5t109.5 39.5l-291 262l453 190l-90 238l280 100
l185 -502l-283 -118l211 -191l-123 -110q-53 -45 -120.5 -85t-142.5 -71t-153.5 -48.5t-158.5 -17.5zM989 915q-76 0 -127 51.5t-51 127.5q0 73 51 124.5t127 51.5q74 0 125 -51.5t51 -124.5q0 -76 -51 -127.5t-125 -51.5z" />
    <glyph glyph-name="uni062A_uni06CC.isol" unicode="&#xfe97;&#xfbfd;" horiz-adv-x="1366" 
d="M543 -324q-99 0 -189 32t-159 110q-56 61 -80.5 131.5t-29.5 143.5t5 140.5t24.5 123t30 93t19.5 50.5l270 -127l-133 61l133 -61q-14 -29 -28.5 -78t-21.5 -101.5t-2 -100.5t32 -77q22 -24 61 -34.5t88 -8.5t103.5 16.5t109.5 39.5l-291 262l453 190l-90 238l280 100
l185 -502l-283 -118l211 -191l-123 -110q-53 -45 -120.5 -85t-142.5 -71t-153.5 -48.5t-158.5 -17.5zM727 1174h524v-252h-524v252z" />
    <glyph glyph-name="uni062B_uni06CC.isol" unicode="&#xfe9b;&#xfbfd;" horiz-adv-x="1366" 
d="M543 -324q-99 0 -189 32t-159 110q-56 61 -80.5 131.5t-29.5 143.5t5 140.5t24.5 123t30 93t19.5 50.5l270 -127l-133 61l133 -61q-14 -29 -28.5 -78t-21.5 -101.5t-2 -100.5t32 -77q22 -24 61 -34.5t88 -8.5t103.5 16.5t109.5 39.5l-291 262l453 190l-90 238l280 100
l185 -502l-283 -118l211 -191l-123 -110q-53 -45 -120.5 -85t-142.5 -71t-153.5 -48.5t-158.5 -17.5zM1280 1145v-223h-582v223h176q-14 20 -22 42.5t-8 49.5q0 59 42 100t105 41q60 0 102 -41t42 -100q0 -27 -8.5 -49.5t-22.5 -42.5h176z" />
    <glyph glyph-name="uni0628_uni06CC.isol" unicode="&#xfe91;&#xfbfd;" horiz-adv-x="1366" 
d="M543 -324q-99 0 -189 32t-159 110q-56 61 -80.5 131.5t-29.5 143.5t5 140.5t24.5 123t30 93t19.5 50.5l270 -127l-133 61l133 -61q-14 -29 -28.5 -78t-21.5 -101.5t-2 -100.5t32 -77q22 -24 61 -34.5t88 -8.5t103.5 16.5t109.5 39.5l-291 262l453 190l-90 238l280 100
l185 -502l-283 -118l211 -191l-123 -110q-53 -45 -120.5 -85t-142.5 -71t-153.5 -48.5t-158.5 -17.5zM1090 -659q-76 0 -127.5 51t-51.5 127q0 73 51.5 124.5t127.5 51.5q73 0 124.5 -51.5t51.5 -124.5q0 -76 -51.5 -127t-124.5 -51z" />
    <glyph glyph-name="uni06CC_uni06CC.isol" unicode="&#xfbfe;&#xfbfd;" horiz-adv-x="1366" 
d="M543 -324q-99 0 -189 32t-159 110q-56 61 -80.5 131.5t-29.5 143.5t5 140.5t24.5 123t30 93t19.5 50.5l270 -127l-133 61l133 -61q-14 -29 -28.5 -78t-21.5 -101.5t-2 -100.5t32 -77q22 -24 61 -34.5t88 -8.5t103.5 16.5t109.5 39.5l-291 262l453 190l-90 238l280 100
l185 -502l-283 -118l211 -191l-123 -110q-53 -45 -120.5 -85t-142.5 -71t-153.5 -48.5t-158.5 -17.5zM827 -350h525v-252h-525v252z" />
    <glyph glyph-name="uni067E_uni06CC.isol" unicode="&#xfb58;&#xfbfd;" horiz-adv-x="1366" 
d="M543 -324q-99 0 -189 32t-159 110q-56 61 -80.5 131.5t-29.5 143.5t5 140.5t24.5 123t30 93t19.5 50.5l270 -127l-133 61l133 -61q-14 -29 -28.5 -78t-21.5 -101.5t-2 -100.5t32 -77q22 -24 61 -34.5t88 -8.5t103.5 16.5t109.5 39.5l-291 262l453 190l-90 238l280 100
l185 -502l-283 -118l211 -191l-123 -110q-53 -45 -120.5 -85t-142.5 -71t-153.5 -48.5t-158.5 -17.5zM1204 -573q15 -21 23 -43.5t8 -49.5q0 -59 -42 -100t-101 -41q-64 0 -106 41t-42 100q0 27 8.5 49.5t22.5 43.5h-176v223h581v-223h-176z" />
    <glyph glyph-name="uni06A9_uni06CC.isol" unicode="&#xfb90;&#xfbfd;" horiz-adv-x="1331" 
d="M1210 467q68 -86 45 -180q-10 -41 -31.5 -74t-49 -58.5t-59.5 -44t-60 -32.5l-31 -17l221 -192l-125 -111q-51 -47 -118.5 -90t-142.5 -74.5t-155.5 -50t-160.5 -18.5q-99 0 -186 32.5t-156 104.5q-56 59 -82.5 130t-32.5 142.5t3 140t22.5 123t28 92.5t20.5 48l272 -115
q-14 -30 -28.5 -79.5t-20.5 -102.5t0 -101.5t33 -76.5q24 -25 63 -34t88 -6t103.5 18.5t107.5 39.5l-284 250l434 211v2l-408 500l776 344l119 -270l-422 -187z" />
    <glyph glyph-name="uni06A9_uni06CC.fina" unicode="&#xfb91;&#xfbfd;" horiz-adv-x="1636" 
d="M1636 0q-65 0 -120.5 5t-108.5 23.5t-105.5 53.5t-107.5 94l-180 -108l194 -209l-96 -101q-4 -4 -46 -42t-113.5 -81t-169 -78.5t-212.5 -35.5q-55 0 -113.5 10t-117.5 33q-45 18 -97.5 52t-93 92.5t-59 145.5t3.5 209q10 56 24.5 105t29 87t23.5 60.5t11 24.5l264 -125
q-12 -29 -24 -61q-10 -29 -22.5 -66t-20.5 -78q-19 -100 19 -143t143 -53q71 -7 136.5 13.5t113.5 49.5l-238 254l444 266l-348 398l785 346l120 -271l-415 -184l252 -289q53 -61 110.5 -81.5t134.5 -20.5v-295z" />
    <glyph glyph-name="uni06AF_uni06CC.isol" unicode="&#xfb94;&#xfbfd;" horiz-adv-x="1329" 
d="M1208 467q68 -86 45 -180q-10 -41 -31.5 -74t-49 -58.5t-59.5 -44t-58 -32.5l-35 -17l221 -192l-125 -111q-51 -47 -117.5 -90t-142.5 -74.5t-157 -50t-158 -18.5q-99 0 -187 32.5t-155 104.5q-56 59 -82.5 130t-32.5 142.5t3 140t23.5 123t29 92.5t18.5 48l270 -115
q-12 -30 -25.5 -79.5t-19.5 -102.5t-1 -101.5t32 -76.5q22 -25 62 -34t88 -6t103.5 18.5t108.5 39.5l-287 250l435 211v2l-408 500l213 94l-61 137l413 185l62 -138h-4l153 66l121 -270l-420 -187z" />
    <glyph glyph-name="uni06AF_uni06CC.fina" unicode="&#xfb95;&#xfbfd;" horiz-adv-x="1636" 
d="M1636 0q-63 0 -119.5 5t-108.5 23.5t-104.5 53.5t-109.5 94l-180 -108l196 -209l-96 -101q-4 -4 -46 -42t-114.5 -81t-170 -78.5t-212.5 -35.5q-53 0 -111.5 10t-117.5 33q-45 18 -97 52t-93 92.5t-60.5 145.5t4.5 209q10 56 24.5 105t28 87t23.5 60.5t12 24.5l262 -125
q-12 -29 -24 -61q-10 -29 -21.5 -66t-19.5 -78q-10 -53 -6 -83.5t14 -49t25.5 -27t31.5 -14.5q52 -20 100 -23t92 5t83 24.5t72 34.5l-238 254l442 266l-346 398l217 96l-61 137l416 184l61 -137l152 66l118 -271l-415 -184l254 -289q53 -61 109.5 -81.5t133.5 -20.5v-295v0
z" />
    <glyph glyph-name="uni0626_uni06CC.isol" unicode="&#xfe8b;&#xfbfd;" horiz-adv-x="1366" 
d="M543 -324q-99 0 -189 32t-159 110q-56 61 -80.5 131.5t-29.5 143.5t5 140.5t24.5 123t30 93t19.5 50.5l270 -127l-133 61l133 -61q-14 -29 -28.5 -78t-21.5 -101.5t-2 -100.5t32 -77q22 -24 61 -34.5t88 -8.5t103.5 16.5t109.5 39.5l-291 262l453 190l-90 238l280 100
l185 -502l-283 -118l211 -191l-123 -110q-53 -45 -120.5 -85t-142.5 -71t-153.5 -48.5t-158.5 -17.5zM1235 1147l-397 -236l-84 142l65 41q-53 47 -67.5 101t-3.5 97q8 37 30.5 71t61.5 58.5t92 38t121 6.5l-15 -163q-59 4 -91 -13.5t-36 -34.5q-4 -12 12.5 -31.5
t51.5 -37.5l176 104z" />
    <glyph glyph-name="uni0626_uni06CC.fina" unicode="&#xfe8c;&#xfbfd;" horiz-adv-x="1618" 
d="M1595 0q-41 0 -89 4t-96 22.5t-91 56.5t-74 107q-8 13 -21.5 35.5t-29.5 50.5l-176 -79l235 -217l-139 -111q-53 -41 -117.5 -77t-136.5 -61.5t-148.5 -41t-152.5 -15.5q-106 0 -205.5 38t-173.5 124q-53 64 -74.5 136.5t-22.5 146.5t12.5 141.5t32.5 122.5t36.5 93
t25.5 48l263 -137q-15 -31 -32.5 -80t-27.5 -101t-7 -100.5t30 -78.5q20 -25 58 -38.5t85 -14.5t102.5 9.5t108.5 30.5l-281 260l832 392q39 -76 76 -140q28 -53 58 -104t40 -70q10 -22 31.5 -39.5t62.5 -17.5h29v-295h-23zM1427 1044l-397 -235l-84 141l66 41
q-54 47 -68 101.5t-4 97.5q8 37 30.5 70.5t61.5 58t92.5 38t120.5 7.5l-14 -164q-60 4 -91.5 -13.5t-35.5 -33.5q-4 -12 12.5 -31.5t50.5 -38.5l176 105z" />
    <glyph glyph-name="uniFEEB_uniFBFD" unicode="&#xfeeb;&#xfbfd;" horiz-adv-x="2038" 
d="M1987 504l-136 -348q-34 -84 -104 -120t-141 -36q-37 0 -68 6l-352 78l-107 -45l168 -131l-129 -117q-53 -47 -119.5 -89t-143.5 -73.5t-158 -50t-160 -18.5q-95 0 -184 30.5t-156 102.5q-56 59 -81.5 130t-31.5 142.5t3 140t23.5 125t29 94t18.5 50.5l270 -119
q-12 -31 -25.5 -80t-19.5 -101t-1 -100.5t32 -76.5q47 -50 148.5 -42.5t209.5 56.5l-262 209l364 155q-34 60 -45.5 131.5t5.5 143.5q12 53 38.5 96t61.5 78l-49 27l137 262zM1237 455q4 20 -6 38.5t-33 22.5h-12q-45 0 -53 -37q-7 -22 5.5 -40.5t32.5 -24.5q23 -4 42.5 7
t23.5 34zM1616 367l-74 39q-4 -5 -5 -12t-3 -13q-6 -35 -23 -68l78 -16z" />
    <glyph glyph-name="uniFEEC_uniFBFD" unicode="&#xfeec;&#xfbfd;" horiz-adv-x="1878" 
d="M1743 0q-21 -37 -43.5 -83t-45 -94t-43 -95t-34.5 -84l-274 114q4 11 17 40.5t32 72.5l-164 268l-180 -86l231 -215l-139 -104q-49 -41 -112.5 -77t-135.5 -61.5t-147.5 -40t-149.5 -14.5q-111 0 -209 36t-170 124q-51 63 -71.5 135t-21.5 143.5t12.5 139t31.5 123
t34.5 92.5t22.5 47l260 -137q-14 -29 -31.5 -77t-26.5 -100.5t-7 -100.5t27 -77q20 -26 59 -38.5t87 -13.5t102.5 9.5t107.5 30.5l-281 258l819 387l207 -340q11 17 19 30t16 24l41 59h295v-295h-135z" />
    <glyph glyph-name="uniFEDF_uniFEE0_uniFEEA" unicode="&#xfedf;&#xfee0;&#xfeea;" horiz-adv-x="1716" 
d="M1102 1339v-268h-117v268h117zM1352 1001q0 -69 -28 -122.5t-75 -83.5q-41 -21 -82 -21q-47 0 -80 21q-10 4 -18 12l-18 18q-11 -10 -20 -18t-19 -12q-17 -11 -38.5 -16t-39.5 -5q-43 0 -82 21q-49 30 -76.5 83.5t-27.5 122.5h126q0 -34 10.5 -60t28.5 -36q7 -4 16 -7
t21 7q33 19 37 90q0 2 -1 3t-1 6l66 -3l63 3q0 -5 -1 -6t-1 -3q4 -69 37 -90q10 -10 20.5 -7t14.5 7q18 10 29.5 36t11.5 60h127zM1655 827v-516q0 -75 -23.5 -127.5t-59.5 -87.5t-77 -54t-77 -28.5t-60.5 -11.5l-24.5 -2h-33h-16q-65 0 -115.5 11.5t-87.5 31.5q-6 4 -11 8
t-9 6q-6 6 -10 9q-15 -15 -31 -23q-39 -20 -90 -31.5t-115 -11.5q-61 0 -116.5 17.5t-98.5 53t-69.5 90t-26.5 126.5v22q-55 -28 -93 -105t-42 -167h-287q0 119 44 223.5t118.5 183t175 123.5t213.5 45h131v-217q0 -14 3 -31.5t11 -32t22.5 -24.5t39.5 -12q39 4 56 26.5
t24 47.5q0 8 1 14t1 12v314h274v-314q0 -6 1 -12t1 -14q4 -25 22.5 -48.5t63.5 -25.5q45 2 60.5 37t15.5 63v432h295z" />
    <glyph glyph-name="uniFBFF_uniFEE6" unicode="&#xfbff;&#xfee6;" horiz-adv-x="1700" 
d="M1628 0q-143 0 -225 51t-105 168h-147q4 -63 -8.5 -121.5t-36.5 -101.5q-39 -74 -96.5 -125t-124 -83t-136 -47t-131.5 -15q-61 0 -130.5 15t-136 47t-124 83t-96.5 125q-27 49 -39 111.5t-8 133t23.5 144.5t54.5 145l293 -124q-64 -148 -23 -246q31 -70 82 -96.5
t104 -26.5q60 0 99 22.5t62.5 60.5t32.5 86t11 101v97.5t-4 107.5h766v-150q0 -22 13.5 -43.5t54.5 -23.5h47v-295h-72zM981 -188h524v-252h-524v252zM610 433q-64 0 -107 43t-43 107q0 62 43 105t107 43q62 0 105 -43t43 -105q0 -64 -43 -107t-105 -43z" />
    <glyph glyph-name="uniFE98_uniFEE6" unicode="&#xfe98;&#xfee6;" horiz-adv-x="1700" 
d="M1628 0q-143 0 -225 51t-105 168h-147q4 -63 -8.5 -121.5t-36.5 -101.5q-39 -74 -96.5 -125t-124 -83t-136 -47t-131.5 -15q-61 0 -130.5 15t-136 47t-124 83t-96.5 125q-27 49 -39 111.5t-8 133t23.5 144.5t54.5 145l293 -124q-64 -148 -23 -246q31 -70 82 -96.5
t104 -26.5q60 0 99 22.5t62.5 60.5t32.5 86t11 101v97.5t-4 107.5h766v-150q0 -22 13.5 -43.5t54.5 -23.5h47v-295h-72zM1009 927h524v-252h-524v252zM610 433q-64 0 -107 43t-43 107q0 62 43 105t107 43q62 0 105 -43t43 -105q0 -64 -43 -107t-105 -43z" />
    <glyph glyph-name="uniFB59_uniFEE6" unicode="&#xfb59;&#xfee6;" horiz-adv-x="1700" 
d="M1628 0q-143 0 -225 51t-105 168h-147q4 -63 -8.5 -121.5t-36.5 -101.5q-39 -74 -96.5 -125t-124 -83t-136 -47t-131.5 -15q-61 0 -130.5 15t-136 47t-124 83t-96.5 125q-27 49 -39 111.5t-8 133t23.5 144.5t54.5 145l293 -124q-64 -148 -23 -246q31 -70 82 -96.5
t104 -26.5q60 0 99 22.5t62.5 60.5t32.5 86t11 101v97.5t-4 107.5h766v-150q0 -22 13.5 -43.5t54.5 -23.5h47v-295h-72zM981 -188h524v-252h-524v252zM610 433q-64 0 -107 43t-43 107q0 62 43 105t107 43q62 0 105 -43t43 -105q0 -64 -43 -107t-105 -43zM1247 -669
q-64 0 -107 43t-43 107q0 62 43 105t107 43q62 0 105 -43t43 -105q0 -64 -43 -107t-105 -43z" />
    <glyph glyph-name="uniFE92_uniFEE6" unicode="&#xfe92;&#xfee6;" horiz-adv-x="1700" 
d="M1628 0q-143 0 -225 51t-105 168h-147q4 -63 -8.5 -121.5t-36.5 -101.5q-39 -74 -96.5 -125t-124 -83t-136 -47t-131.5 -15q-61 0 -130.5 15t-136 47t-124 83t-96.5 125q-27 49 -39 111.5t-8 133t23.5 144.5t54.5 145l293 -124q-64 -148 -23 -246q31 -70 82 -96.5
t104 -26.5q60 0 99 22.5t62.5 60.5t32.5 86t11 101v97.5t-4 107.5h766v-150q0 -22 13.5 -43.5t54.5 -23.5h47v-295h-72zM610 433q-64 0 -107 43t-43 107q0 62 43 105t107 43q62 0 105 -43t43 -105q0 -64 -43 -107t-105 -43zM1292 -517q-64 0 -107 43t-43 107q0 62 43 105
t107 43q62 0 105 -43t43 -105q0 -64 -43 -107t-105 -43z" />
    <glyph glyph-name="uniFEE7_uniFEE4" unicode="&#xfee7;&#xfee4;" horiz-adv-x="707" 
d="M43 295l324 496l247 -160l-217 -336h248v-295h-645q-16 0 -32.5 9t-16.5 16v247q0 11 18.5 17t30.5 6h43zM373 915q-76 0 -127 51.5t-51 127.5q0 73 51 124.5t127 51.5q73 0 124.5 -51.5t51.5 -124.5q0 -76 -51.5 -127.5t-124.5 -51.5z" />
    <glyph glyph-name="uniFE97_uniFEE4" unicode="&#xfe97;&#xfee4;" horiz-adv-x="707" 
d="M43 295l324 496l247 -160l-217 -336h248v-295h-645q-16 0 -32.5 9t-16.5 16v247q0 11 18.5 17t30.5 6h43zM111 1174h524v-252h-524v252z" />
    <glyph glyph-name="uniFEF3_uniFEE4" unicode="&#xfbfe;&#xfee4;" horiz-adv-x="707" 
d="M43 295l324 496l247 -160l-217 -336h248v-295h-645q-16 0 -32.5 9t-16.5 16v247q0 11 18.5 17t30.5 6h43zM127 -162h524v-252h-524v252z" />
    <glyph glyph-name="uniFB58_uniFEE4" unicode="&#xfb58;&#xfee4;" horiz-adv-x="707" 
d="M43 295l324 496l247 -160l-217 -336h248v-295h-645q-16 0 -32.5 9t-16.5 16v247q0 11 18.5 17t30.5 6h43zM504 -385q14 -21 22.5 -43.5t8.5 -48.5q0 -60 -42 -100.5t-102 -40.5q-63 0 -105 40.5t-42 100.5q0 26 8 48.5t22 43.5h-176v223h582v-223h-176z" />
    <glyph glyph-name="uniFE9B_uniFEE4" unicode="&#xfe9b;&#xfee4;" horiz-adv-x="707" 
d="M43 295l324 496l247 -160l-217 -336h248v-295h-645q-16 0 -32.5 9t-16.5 16v247q0 11 18.5 17t30.5 6h43zM664 1145v-223h-582v223h176q-14 20 -22.5 42.5t-8.5 49.5q0 59 42 100t106 41q59 0 101 -41t42 -100q0 -27 -8 -49.5t-23 -42.5h177z" />
    <glyph glyph-name="uniFEDF_uniFEE2" unicode="&#xfedf;&#xfee2;" horiz-adv-x="1040" 
d="M979 0h-580v-408h-317v703h305q14 0 44 7t58.5 36t50 84t21.5 153v431h295v-431q0 -86 -13.5 -154.5t-37.5 -125.5h174v-295z" />
    <glyph glyph-name="uniFEDF_uniFEE4" unicode="&#xfedf;&#xfee4;" horiz-adv-x="737" 
d="M80 295q14 0 44 7t59.5 35t51 83t21.5 153v433h295v-433q0 -86 -13.5 -153.5t-35.5 -124.5h174v-295h-676q-16 0 -32.5 9t-16.5 16v247q0 11 18.5 17t30.5 6h80z" />
    <glyph glyph-name="_460" unicode="&#xfee0;&#xfee2;" horiz-adv-x="1491" 
d="M1241 0q-35 0 -74 17.5t-72.5 48t-56 74.5t-22.5 100v217q-172 -25 -289 -162h178v-295h-481v-414h-342v709h264q29 57 80 136t131 151.5t192.5 128t266.5 67.5v228h325v-607q0 -65 30 -83.5t63 -20.5h57v-295h-250z" />
    <glyph glyph-name="_468.2" unicode="&#xfe98;&#xfee4;" horiz-adv-x="1026" 
d="M834 0q-17 0 -47.5 5t-64.5 24.5t-63.5 57.5t-42.5 103l-43 234q-61 -12 -119.5 -43t-101.5 -86h140l20 -295h-520q-17 0 -29 9t-12 16v247q0 11 14.5 17t26.5 6h8h23q73 205 246 319.5t421 114.5h2l121 -2l84 -432h129v-295h-192zM336 1174h524v-252h-524v252z" />
    <glyph glyph-name="_468.4" unicode="&#xfee8;&#xfee4;" horiz-adv-x="1026" 
d="M834 0q-17 0 -47.5 5t-64.5 24.5t-63.5 57.5t-42.5 103l-43 234q-61 -12 -119.5 -43t-101.5 -86h140l20 -295h-520q-17 0 -29 9t-12 16v247q0 11 14.5 17t26.5 6h8h23q73 205 246 319.5t421 114.5h2l121 -2l84 -432h129v-295h-192zM598 915q-76 0 -127 51.5t-51 127.5
q0 73 51 124.5t127 51.5q74 0 125 -51.5t51 -124.5q0 -76 -51 -127.5t-125 -51.5z" />
    <glyph glyph-name="_468.5" unicode="&#xfbff;&#xfee4;" horiz-adv-x="1026" 
d="M834 0q-17 0 -47.5 5t-64.5 24.5t-63.5 57.5t-42.5 103l-43 234q-61 -12 -119.5 -43t-101.5 -86h140l20 -295h-520q-17 0 -29 9t-12 16v247q0 11 14.5 17t26.5 6h8h23q73 205 246 319.5t421 114.5h2l121 -2l84 -432h129v-295h-192zM326 -162h524v-252h-524v252z" />
    <glyph glyph-name="_468.7" unicode="&#xfe92;&#xfee2;" horiz-adv-x="1325" 
d="M1153 0q-16 0 -48 5t-65.5 24.5t-62.5 57.5t-41 103l-45 234q-62 -12 -119 -43t-102 -86h139l20 -295h-432v-403h-315v698h258q74 205 248 319.5t422 114.5h2l118 -2l84 -432h111v-295h-172zM938 -471q-76 0 -127 51t-51 127q0 74 51 125t127 51q74 0 125 -51t51 -125
q0 -76 -51 -127t-125 -51z" />
    <glyph glyph-name="_468.9" unicode="&#xfe98;&#xfee2;" horiz-adv-x="1325" 
d="M1153 0q-16 0 -48 5t-65.5 24.5t-62.5 57.5t-41 103l-45 234q-62 -12 -119 -43t-102 -86h139l20 -295h-432v-403h-315v698h258q74 205 248 319.5t422 114.5h2l118 -2l84 -432h111v-295h-172zM629 1169h524v-251h-524v251z" />
    <glyph glyph-name="_468.10" unicode="&#xfe9c;&#xfee2;" horiz-adv-x="1325" 
d="M1153 0q-16 0 -48 5t-65.5 24.5t-62.5 57.5t-41 103l-45 234q-62 -12 -119 -43t-102 -86h139l20 -295h-432v-403h-315v698h258q74 205 248 319.5t422 114.5h2l118 -2l84 -432h111v-295h-172zM1182 1141v-223h-582v223h176q-14 20 -22.5 42.5t-8.5 49.5q0 59 42 100
t106 41q59 0 101 -41t42 -100q0 -27 -8 -49.5t-22 -42.5h176z" />
    <glyph glyph-name="_468.11" unicode="&#xfee8;&#xfee2;" horiz-adv-x="1325" 
d="M1153 0q-16 0 -48 5t-65.5 24.5t-62.5 57.5t-41 103l-45 234q-62 -12 -119 -43t-102 -86h139l20 -295h-432v-403h-315v698h258q74 205 248 319.5t422 114.5h2l118 -2l84 -432h111v-295h-172zM891 911q-76 0 -127 51.5t-51 127.5q0 73 51 124.5t127 51.5q74 0 125 -51.5
t51 -124.5q0 -76 -51 -127.5t-125 -51.5z" />
    <glyph glyph-name="_480" unicode="&#xfbff;&#xfee2;" horiz-adv-x="1325" 
d="M1153 0q-16 0 -48 5t-65.5 24.5t-62.5 57.5t-41 103l-45 234q-62 -12 -119 -43t-102 -86h139l20 -295h-432v-403h-315v698h258q74 205 248 319.5t422 114.5h2l118 -2l84 -432h111v-295h-172zM676 -162h524v-252h-524v252z" />
    <glyph glyph-name="_480.1" unicode="&#xfe8c;&#xfee2;" horiz-adv-x="1325" 
d="M1153 0q-16 0 -48 5t-65.5 24.5t-62.5 57.5t-41 103l-45 234q-62 -12 -119 -43t-102 -86h139l20 -295h-432v-403h-315v698h258q74 205 248 319.5t422 114.5h2l118 -2l84 -432h111v-295h-172zM1137 1143l-398 -236l-84 142l66 41q-53 47 -67.5 101t-4.5 97q8 37 30.5 71
t61.5 58.5t92.5 37.5t120.5 7l-14 -164q-59 5 -91 -12.5t-36 -34.5q-4 -12 12.5 -31.5t51.5 -37.5l176 104z" />
    <glyph glyph-name="_480.2" unicode="&#xfe92;&#xfeb0;" horiz-adv-x="1035" 
d="M976 0q-135 0 -213 45t-107 145h-98q-16 0 -32.5 9t-16.5 16v243q0 11 18.5 17t30.5 6h373v-127q0 -19 13 -38.5t54 -21.5h37v-294h-59zM685 -472q-76 0 -127 51.5t-51 127.5q0 73 51 124.5t127 51.5q74 0 125 -51.5t51 -124.5q0 -76 -51 -127.5t-125 -51.5zM524 187
q-41 -167 -105.5 -294t-131.5 -230l-246 162q47 70 87 142.5t69.5 151.5t49 168t27.5 191h291v-291h-41zM432 685q-76 0 -127 51.5t-51 126.5q0 74 51 125t127 51q74 0 125 -51t51 -125q0 -75 -51 -126.5t-125 -51.5z" />
    <glyph glyph-name="_480.3" unicode="&#xfb59;&#xfeb0;" horiz-adv-x="1062" 
d="M1003 0q-135 0 -213 45t-107 145h-98q-16 0 -32.5 9t-16.5 16v243q0 11 18.5 17t30.5 6h373v-127q0 -19 13 -38.5t54 -21.5h37v-294h-59zM916 -327q14 -21 22 -43.5t8 -49.5q0 -59 -42 -100t-101 -41q-63 0 -105 41t-42 100q0 27 8 49.5t22 43.5h-176v223h582v-223h-176z
M551 187q-41 -167 -105.5 -294t-131.5 -230l-246 162q47 70 87 142.5t69.5 151.5t49 168t27.5 191h291v-291h-41zM459 685q-76 0 -127 51.5t-51 126.5q0 74 51 125t127 51q74 0 125 -51t51 -125q0 -75 -51 -126.5t-125 -51.5z" />
    <glyph glyph-name="_480.4" unicode="&#xfe98;&#xfeb0;" horiz-adv-x="1021" 
d="M962 0q-135 0 -213 45t-107 145h-98q-16 0 -32.5 9t-16.5 16v243q0 11 18.5 17t30.5 6h373v-127q0 -19 13 -38.5t54 -21.5h37v-294h-59zM633 982h525v-252h-525v252zM510 187q-41 -167 -105.5 -294t-131.5 -230l-246 162q47 70 87 142.5t69.5 151.5t49 168t27.5 191h291
v-291h-41zM418 685q-76 0 -127 51.5t-51 126.5q0 74 51 125t127 51q74 0 125 -51t51 -125q0 -75 -51 -126.5t-125 -51.5z" />
    <glyph glyph-name="_480.5" unicode="&#xfe9c;&#xfeb0;" horiz-adv-x="1035" 
d="M976 0q-135 0 -213 45t-107 145h-98q-16 0 -32.5 9t-16.5 16v243q0 11 18.5 17t30.5 6h373v-127q0 -19 13 -38.5t54 -21.5h37v-294h-59zM1242 946v-223h-581v223h176q-15 21 -23 43.5t-8 48.5q0 60 42 101t105 41q60 0 102 -41t42 -101q0 -26 -8.5 -48.5t-22.5 -43.5h176
zM524 187q-41 -167 -105.5 -294t-131.5 -230l-246 162q47 70 87 142.5t69.5 151.5t49 168t27.5 191h291v-291h-41zM432 685q-76 0 -127 51.5t-51 126.5q0 74 51 125t127 51q74 0 125 -51t51 -125q0 -75 -51 -126.5t-125 -51.5z" />
    <glyph glyph-name="_480.6" unicode="&#xfee8;&#xfeb0;" horiz-adv-x="1035" 
d="M976 0q-135 0 -213 45t-107 145h-98q-16 0 -32.5 9t-16.5 16v243q0 11 18.5 17t30.5 6h373v-127q0 -19 13 -38.5t54 -21.5h37v-294h-59zM827 696q-75 0 -126.5 51t-51.5 127q0 74 51.5 125t126.5 51q74 0 125 -51t51 -125q0 -76 -51 -127t-125 -51zM524 187
q-41 -167 -105.5 -294t-131.5 -230l-246 162q47 70 87 142.5t69.5 151.5t49 168t27.5 191h291v-291h-41zM432 685q-76 0 -127 51.5t-51 126.5q0 74 51 125t127 51q74 0 125 -51t51 -125q0 -75 -51 -126.5t-125 -51.5z" />
    <glyph glyph-name="_480.7" unicode="&#xfbff;&#xfeb0;" horiz-adv-x="1028" 
d="M969 0q-135 0 -213 45t-107 145h-98q-16 0 -32.5 9t-16.5 16v243q0 11 18.5 17t30.5 6h373v-127q0 -19 13 -38.5t54 -21.5h37v-294h-59zM416 -162h524v-252h-524v252zM517 187q-41 -167 -105.5 -294t-131.5 -230l-246 162q47 70 87 142.5t69.5 151.5t49 168t27.5 191h291
v-291h-41zM425 685q-76 0 -127 51.5t-51 126.5q0 74 51 125t127 51q74 0 125 -51t51 -125q0 -75 -51 -126.5t-125 -51.5z" />
    <glyph glyph-name="_480.8" unicode="&#xfe8c;&#xfeb0;" horiz-adv-x="1028" 
d="M969 0q-135 0 -213 45t-107 145h-98q-16 0 -32.5 9t-16.5 16v243q0 11 18.5 17t30.5 6h373v-127q0 -19 13 -38.5t54 -21.5h37v-294h-59zM1148 886l-397 -235l-84 141l65 41q-53 47 -67.5 101.5t-3.5 97.5q8 37 30.5 70.5t61.5 58t92 38t121 7.5l-14 -164
q-60 4 -91.5 -13.5t-35.5 -33.5q-5 -12 11.5 -31.5t51.5 -38.5l176 105zM517 187q-41 -167 -105.5 -294t-131.5 -230l-246 162q47 70 87 142.5t69.5 151.5t49 168t27.5 191h291v-291h-41zM425 685q-76 0 -127 51.5t-51 126.5q0 74 51 125t127 51q74 0 125 -51t51 -125
q0 -75 -51 -126.5t-125 -51.5z" />
    <glyph glyph-name="_480.9" unicode="&#xfeb7;&#xfeb0;" horiz-adv-x="1873" 
d="M897 481v-88q0 -29 14.5 -61.5t57.5 -39.5h43q41 2 57.5 25t20.5 51q2 8 2 25v55h293v-55q0 -17 2 -25q4 -28 21 -51t56 -25q25 2 40.5 12.5t24.5 25t12 31.5t3 32v112h293v-219q0 -286 -321 -286h-45q-127 0 -203 45q-15 6 -29 20q-8 -6 -14 -11t-17 -9q-26 -17 -59 -28
t-74 -15q-14 -2 -28.5 -2h-30.5h-55q-263 0 -312 190h-98q-16 0 -32.5 9t-16.5 16v243q0 11 18.5 17t30.5 6h346zM1530 925v-223h-582v223h176q-14 21 -22 43.5t-8 48.5q0 60 42 101t105 41q60 0 102 -41t42 -101q0 -26 -8.5 -48.5t-22.5 -43.5h176zM517 187
q-41 -167 -105.5 -294t-131.5 -230l-246 162q47 70 87 142.5t69.5 151.5t49 168t27.5 191h291v-291h-41zM425 685q-76 0 -127 51.5t-51 126.5q0 74 51 125t127 51q74 0 125 -51t51 -125q0 -75 -51 -126.5t-125 -51.5z" />
    <glyph glyph-name="_438" unicode="&#xfeb8;&#xfeb0;" horiz-adv-x="2021" 
d="M1950 0q-127 0 -203 45q-12 4 -29 18q-12 -12 -28 -18q-76 -45 -203 -45h-16q-129 0 -205 45q-17 8 -27 18q-8 -4 -15 -9t-16 -9q-55 -33 -133 -43q-14 0 -28.5 -1t-30.5 -1h-57q-263 0 -308 190h-100q-16 0 -32.5 9t-16.5 16v243q0 11 18.5 17t30.5 6h346v-88
q0 -29 14.5 -61.5t57.5 -39.5h43q41 2 57.5 25t20.5 51q2 8 2 25v53h290v-53q0 -6 1.5 -12.5t1.5 -12.5q4 -28 22 -52t64 -24h16q43 0 61.5 24t22.5 52v78h293v-53q0 -17 2 -25q4 -28 22.5 -51t61.5 -23h71v-294h-71zM1559 925v-223h-582v223h176q-14 21 -22.5 43.5
t-8.5 48.5q0 60 42 101t106 41q59 0 101 -41t42 -101q0 -26 -8 -48.5t-23 -43.5h177zM517 187q-41 -167 -105.5 -294t-131.5 -230l-246 162q47 70 87 142.5t69.5 151.5t49 168t27.5 191h291v-291h-41zM425 685q-76 0 -127 51.5t-51 126.5q0 74 51 125t127 51q74 0 125 -51
t51 -125q0 -75 -51 -126.5t-125 -51.5z" />
    <glyph glyph-name="_438.1" unicode="&#xfebf;&#xfeb0;" horiz-adv-x="2011" 
d="M969 481v-125q0 -19 12 -40.5t53 -23.5h166l-170 142q31 37 84 94t115.5 112.5t132.5 99.5t135 54q82 14 161 -21.5t144 -117.5q37 -43 67 -110.5t47 -140.5t18 -142.5t-19 -120.5q-20 -47 -54 -76t-78 -44t-98.5 -19.5t-115.5 -4.5h-557q-137 0 -214 45.5t-106 147.5
h-100q-16 0 -32.5 9t-16.5 16v243q0 11 18.5 17t30.5 6h377zM1569 292q27 0 44 5.5t23 9.5q3 20 -6.5 50t-24 57.5t-32.5 51t-33 31.5q-16 -6 -42.5 -24.5t-58.5 -46t-67 -62.5t-67 -72h264zM1145 833q-76 0 -127 51t-51 127q0 74 51 125t127 51q74 0 125 -51t51 -125
q0 -76 -51 -127t-125 -51zM558 187q-41 -167 -105.5 -294t-131.5 -230l-246 162q47 70 87 142.5t69.5 151.5t49 168t27.5 191h291v-291h-41zM466 685q-76 0 -127 51.5t-51 126.5q0 74 51 125t127 51q74 0 125 -51t51 -125q0 -75 -51 -126.5t-125 -51.5z" />
    <glyph glyph-name="_438.2" unicode="&#xfec0;&#xfeb0;" horiz-adv-x="1982" 
d="M962 -3q-137 0 -216 45.5t-108 147.5h-94q-16 0 -32.5 9t-16.5 16v243q0 11 18.5 17t30.5 6h375v-123q0 -23 12 -43.5t53 -22.5h168l-170 140q31 37 82 94t113.5 112.5t132.5 99.5t135 56q84 14 162 -21.5t143 -117.5q51 -62 87 -163t44 -200h107v-295h-1026zM1519 292
q57 0 67 19q0 18 -9 47t-23.5 57.5t-31.5 51t-34 32.5q-35 -14 -101.5 -72.5t-133.5 -134.5h266zM1103 833q-76 0 -127 51t-51 127q0 74 51 125t127 51q74 0 125 -51t51 -125q0 -76 -51 -127t-125 -51zM510 187q-41 -167 -105.5 -294t-131.5 -230l-246 162q47 70 87 142.5
t69.5 151.5t49 168t27.5 191h291v-291h-41zM418 685q-76 0 -127 51.5t-51 126.5q0 74 51 125t127 51q74 0 125 -51t51 -125q0 -75 -51 -126.5t-125 -51.5z" />
    <glyph glyph-name="_438.3" unicode="&#xfebb;&#xfeb0;" horiz-adv-x="2011" 
d="M969 481v-125q0 -19 12 -40.5t53 -23.5h166l-170 142q31 37 84 94t115.5 112.5t132.5 99.5t135 54q82 14 161 -21.5t144 -117.5q37 -43 67 -110.5t47 -140.5t18 -142.5t-19 -120.5q-20 -47 -54 -76t-78 -44t-98.5 -19.5t-115.5 -4.5h-557q-137 0 -214 45.5t-106 147.5
h-100q-16 0 -32.5 9t-16.5 16v243q0 11 18.5 17t30.5 6h377zM1569 292q27 0 44 5.5t23 9.5q3 20 -6.5 50t-24 57.5t-32.5 51t-33 31.5q-16 -6 -42.5 -24.5t-58.5 -46t-67 -62.5t-67 -72h264zM558 187q-41 -167 -105.5 -294t-131.5 -230l-246 162q47 70 87 142.5t69.5 151.5
t49 168t27.5 191h291v-291h-41zM466 685q-76 0 -127 51.5t-51 126.5q0 74 51 125t127 51q74 0 125 -51t51 -125q0 -75 -51 -126.5t-125 -51.5z" />
    <glyph glyph-name="_438.4" unicode="&#xfebc;&#xfeb0;" horiz-adv-x="1982" 
d="M962 -3q-137 0 -216 45.5t-108 147.5h-94q-16 0 -32.5 9t-16.5 16v243q0 11 18.5 17t30.5 6h375v-123q0 -23 12 -43.5t53 -22.5h168l-170 140q31 37 82 94t113.5 112.5t132.5 99.5t135 56q84 14 162 -21.5t143 -117.5q51 -62 87 -163t44 -200h107v-295h-1026zM1519 292
q57 0 67 19q0 18 -9 47t-23.5 57.5t-31.5 51t-34 32.5q-35 -14 -101.5 -72.5t-133.5 -134.5h266zM510 187q-41 -167 -105.5 -294t-131.5 -230l-246 162q47 70 87 142.5t69.5 151.5t49 168t27.5 191h291v-291h-41zM418 685q-76 0 -127 51.5t-51 126.5q0 74 51 125t127 51
q74 0 125 -51t51 -125q0 -75 -51 -126.5t-125 -51.5z" />
    <glyph glyph-name="_438.5" unicode="&#xfe92;&#xfeae;" horiz-adv-x="1035" 
d="M976 0q-135 0 -213 45t-107 145h-98q-16 0 -32.5 9t-16.5 16v243q0 11 18.5 17t30.5 6h373v-127q0 -19 13 -38.5t54 -21.5h37v-294h-59zM685 -472q-76 0 -127 51.5t-51 127.5q0 73 51 124.5t127 51.5q74 0 125 -51.5t51 -124.5q0 -76 -51 -127.5t-125 -51.5zM524 187
q-41 -167 -105.5 -294t-131.5 -230l-246 162q47 70 87 142.5t69.5 151.5t49 168t27.5 191h291v-291h-41z" />
    <glyph glyph-name="_438.6" unicode="&#xfb59;&#xfeae;" horiz-adv-x="1062" 
d="M1003 0q-135 0 -213 45t-107 145h-98q-16 0 -32.5 9t-16.5 16v243q0 11 18.5 17t30.5 6h373v-127q0 -19 13 -38.5t54 -21.5h37v-294h-59zM916 -327q14 -21 22 -43.5t8 -49.5q0 -59 -42 -100t-101 -41q-63 0 -105 41t-42 100q0 27 8 49.5t22 43.5h-176v223h582v-223h-176z
M551 187q-41 -167 -105.5 -294t-131.5 -230l-246 162q47 70 87 142.5t69.5 151.5t49 168t27.5 191h291v-291h-41z" />
    <glyph glyph-name="_438.7" unicode="&#xfe98;&#xfeae;" horiz-adv-x="1021" 
d="M962 0q-135 0 -213 45t-107 145h-98q-16 0 -32.5 9t-16.5 16v243q0 11 18.5 17t30.5 6h373v-127q0 -19 13 -38.5t54 -21.5h37v-294h-59zM440 968h525v-252h-525v252zM510 187q-41 -167 -105.5 -294t-131.5 -230l-246 162q47 70 87 142.5t69.5 151.5t49 168t27.5 191h291
v-291h-41z" />
    <glyph glyph-name="_438.8" unicode="&#xfe9c;&#xfeae;" horiz-adv-x="1035" 
d="M976 0q-135 0 -213 45t-107 145h-98q-16 0 -32.5 9t-16.5 16v243q0 11 18.5 17t30.5 6h373v-127q0 -19 13 -38.5t54 -21.5h37v-294h-59zM933 918v-223h-581v223h176q-15 21 -23 43.5t-8 48.5q0 60 42 101t105 41q60 0 102 -41t42 -101q0 -26 -8.5 -48.5t-22.5 -43.5h176z
M524 187q-41 -167 -105.5 -294t-131.5 -230l-246 162q47 70 87 142.5t69.5 151.5t49 168t27.5 191h291v-291h-41z" />
    <glyph glyph-name="_438.9" unicode="&#xfee8;&#xfeae;" horiz-adv-x="1035" 
d="M976 0q-135 0 -213 45t-107 145h-98q-16 0 -32.5 9t-16.5 16v243q0 11 18.5 17t30.5 6h373v-127q0 -19 13 -38.5t54 -21.5h37v-294h-59zM772 662q-75 0 -126.5 51t-51.5 127q0 74 51.5 125t126.5 51q74 0 125 -51t51 -125q0 -76 -51 -127t-125 -51zM524 187
q-41 -167 -105.5 -294t-131.5 -230l-246 162q47 70 87 142.5t69.5 151.5t49 168t27.5 191h291v-291h-41z" />
    <glyph glyph-name="_438.10" unicode="&#xfbff;&#xfeae;" horiz-adv-x="1028" 
d="M969 0q-135 0 -213 45t-107 145h-98q-16 0 -32.5 9t-16.5 16v243q0 11 18.5 17t30.5 6h373v-127q0 -19 13 -38.5t54 -21.5h37v-294h-59zM416 -162h524v-252h-524v252zM517 187q-41 -167 -105.5 -294t-131.5 -230l-246 162q47 70 87 142.5t69.5 151.5t49 168t27.5 191h291
v-291h-41z" />
    <glyph glyph-name="_438.11" unicode="&#xfe8c;&#xfeae;" horiz-adv-x="1028" 
d="M969 0q-135 0 -213 45t-107 145h-98q-16 0 -32.5 9t-16.5 16v243q0 11 18.5 17t30.5 6h373v-127q0 -19 13 -38.5t54 -21.5h37v-294h-59zM1148 886l-397 -235l-84 141l65 41q-53 47 -67.5 101.5t-3.5 97.5q8 37 30.5 70.5t61.5 58t92 38t121 7.5l-14 -164
q-60 4 -91.5 -13.5t-35.5 -33.5q-5 -12 11.5 -31.5t51.5 -38.5l176 105zM517 187q-41 -167 -105.5 -294t-131.5 -230l-246 162q47 70 87 142.5t69.5 151.5t49 168t27.5 191h291v-291h-41z" />
    <glyph glyph-name="_438.12" unicode="&#xfeb7;&#xfeae;" horiz-adv-x="1873" 
d="M897 481v-88q0 -29 14.5 -61.5t57.5 -39.5h43q41 2 57.5 25t20.5 51q2 8 2 25v55h293v-55q0 -17 2 -25q4 -28 21 -51t56 -25q25 2 40.5 12.5t24.5 25t12 31.5t3 32v112h293v-219q0 -286 -321 -286h-45q-127 0 -203 45q-15 6 -29 20q-8 -6 -14 -11t-17 -9q-26 -17 -59 -28
t-74 -15q-14 -2 -28.5 -2h-30.5h-55q-263 0 -312 190h-98q-16 0 -32.5 9t-16.5 16v243q0 11 18.5 17t30.5 6h346zM1530 925v-223h-582v223h176q-14 21 -22 43.5t-8 48.5q0 60 42 101t105 41q60 0 102 -41t42 -101q0 -26 -8.5 -48.5t-22.5 -43.5h176zM517 187
q-41 -167 -105.5 -294t-131.5 -230l-246 162q47 70 87 142.5t69.5 151.5t49 168t27.5 191h291v-291h-41z" />
    <glyph glyph-name="_451" unicode="&#xfeb8;&#xfeae;" horiz-adv-x="2021" 
d="M1950 0q-127 0 -203 45q-12 4 -29 18q-12 -12 -28 -18q-76 -45 -203 -45h-16q-129 0 -205 45q-17 8 -27 18q-8 -4 -15 -9t-16 -9q-55 -33 -133 -43q-14 0 -28.5 -1t-30.5 -1h-57q-263 0 -308 190h-100q-16 0 -32.5 9t-16.5 16v243q0 11 18.5 17t30.5 6h346v-88
q0 -29 14.5 -61.5t57.5 -39.5h43q41 2 57.5 25t20.5 51q2 8 2 25v53h290v-53q0 -6 1.5 -12.5t1.5 -12.5q4 -28 22 -52t64 -24h16q43 0 61.5 24t22.5 52v78h293v-53q0 -17 2 -25q4 -28 22.5 -51t61.5 -23h71v-294h-71zM1559 925v-223h-582v223h176q-14 21 -22.5 43.5
t-8.5 48.5q0 60 42 101t106 41q59 0 101 -41t42 -101q0 -26 -8 -48.5t-23 -43.5h177zM517 187q-41 -167 -105.5 -294t-131.5 -230l-246 162q47 70 87 142.5t69.5 151.5t49 168t27.5 191h291v-291h-41z" />
    <glyph glyph-name="_451.1" unicode="&#xfebf;&#xfeae;" horiz-adv-x="2011" 
d="M969 481v-125q0 -19 12 -40.5t53 -23.5h166l-170 142q31 37 84 94t115.5 112.5t132.5 99.5t135 54q82 14 161 -21.5t144 -117.5q37 -43 67 -110.5t47 -140.5t18 -142.5t-19 -120.5q-20 -47 -54 -76t-78 -44t-98.5 -19.5t-115.5 -4.5h-557q-137 0 -214 45.5t-106 147.5
h-100q-16 0 -32.5 9t-16.5 16v243q0 11 18.5 17t30.5 6h377zM1569 292q27 0 44 5.5t23 9.5q3 20 -6.5 50t-24 57.5t-32.5 51t-33 31.5q-16 -6 -42.5 -24.5t-58.5 -46t-67 -62.5t-67 -72h264zM1145 833q-76 0 -127 51t-51 127q0 74 51 125t127 51q74 0 125 -51t51 -125
q0 -76 -51 -127t-125 -51zM558 187q-41 -167 -105.5 -294t-131.5 -230l-246 162q47 70 87 142.5t69.5 151.5t49 168t27.5 191h291v-291h-41z" />
    <glyph glyph-name="_451.2" unicode="&#xfec0;&#xfeae;" horiz-adv-x="1982" 
d="M962 -3q-137 0 -216 45.5t-108 147.5h-94q-16 0 -32.5 9t-16.5 16v243q0 11 18.5 17t30.5 6h375v-123q0 -23 12 -43.5t53 -22.5h168l-170 140q31 37 82 94t113.5 112.5t132.5 99.5t135 56q84 14 162 -21.5t143 -117.5q51 -62 87 -163t44 -200h107v-295h-1026zM1519 292
q57 0 67 19q0 18 -9 47t-23.5 57.5t-31.5 51t-34 32.5q-35 -14 -101.5 -72.5t-133.5 -134.5h266zM1103 833q-76 0 -127 51t-51 127q0 74 51 125t127 51q74 0 125 -51t51 -125q0 -76 -51 -127t-125 -51zM510 187q-41 -167 -105.5 -294t-131.5 -230l-246 162q47 70 87 142.5
t69.5 151.5t49 168t27.5 191h291v-291h-41z" />
    <glyph glyph-name="_451.3" unicode="&#xfebb;&#xfeae;" horiz-adv-x="2011" 
d="M969 481v-125q0 -19 12 -40.5t53 -23.5h166l-170 142q31 37 84 94t115.5 112.5t132.5 99.5t135 54q82 14 161 -21.5t144 -117.5q37 -43 67 -110.5t47 -140.5t18 -142.5t-19 -120.5q-20 -47 -54 -76t-78 -44t-98.5 -19.5t-115.5 -4.5h-557q-137 0 -214 45.5t-106 147.5
h-100q-16 0 -32.5 9t-16.5 16v243q0 11 18.5 17t30.5 6h377zM1569 292q27 0 44 5.5t23 9.5q3 20 -6.5 50t-24 57.5t-32.5 51t-33 31.5q-16 -6 -42.5 -24.5t-58.5 -46t-67 -62.5t-67 -72h264zM558 187q-41 -167 -105.5 -294t-131.5 -230l-246 162q47 70 87 142.5t69.5 151.5
t49 168t27.5 191h291v-291h-41z" />
    <glyph glyph-name="_451.4" unicode="&#xfebc;&#xfeae;" horiz-adv-x="1982" 
d="M962 -3q-137 0 -216 45.5t-108 147.5h-94q-16 0 -32.5 9t-16.5 16v243q0 11 18.5 17t30.5 6h375v-123q0 -23 12 -43.5t53 -22.5h168l-170 140q31 37 82 94t113.5 112.5t132.5 99.5t135 56q84 14 162 -21.5t143 -117.5q51 -62 87 -163t44 -200h107v-295h-1026zM1519 292
q57 0 67 19q0 18 -9 47t-23.5 57.5t-31.5 51t-34 32.5q-35 -14 -101.5 -72.5t-133.5 -134.5h266zM510 187q-41 -167 -105.5 -294t-131.5 -230l-246 162q47 70 87 142.5t69.5 151.5t49 168t27.5 191h291v-291h-41z" />
    <glyph glyph-name="_451.5" unicode="&#xfe92;&#xfb8b;" horiz-adv-x="1035" 
d="M976 0q-135 0 -213 45t-107 145h-98q-16 0 -32.5 9t-16.5 16v243q0 11 18.5 17t30.5 6h373v-127q0 -19 13 -38.5t54 -21.5h37v-294h-59zM685 -472q-76 0 -127 51.5t-51 127.5q0 73 51 124.5t127 51.5q74 0 125 -51.5t51 -124.5q0 -76 -51 -127.5t-125 -51.5zM524 187
q-41 -167 -105.5 -294t-131.5 -230l-246 162q47 70 87 142.5t69.5 151.5t49 168t27.5 191h291v-291h-41zM933 918v-223h-581v223h176q-15 21 -23 43.5t-8 48.5q0 60 42 101t105 41q60 0 102 -41t42 -101q0 -26 -8.5 -48.5t-22.5 -43.5h176z" />
    <glyph glyph-name="_451.6" unicode="&#xfb59;&#xfb8b;" horiz-adv-x="1062" 
d="M1003 0q-135 0 -213 45t-107 145h-98q-16 0 -32.5 9t-16.5 16v243q0 11 18.5 17t30.5 6h373v-127q0 -19 13 -38.5t54 -21.5h37v-294h-59zM916 -327q14 -21 22 -43.5t8 -49.5q0 -59 -42 -100t-101 -41q-63 0 -105 41t-42 100q0 27 8 49.5t22 43.5h-176v223h582v-223h-176z
M551 187q-41 -167 -105.5 -294t-131.5 -230l-246 162q47 70 87 142.5t69.5 151.5t49 168t27.5 191h291v-291h-41zM960 918v-223h-581v223h176q-15 21 -23 43.5t-8 48.5q0 60 42 101t105 41q60 0 102 -41t42 -101q0 -26 -8.5 -48.5t-22.5 -43.5h176z" />
    <glyph glyph-name="_451.7" unicode="&#xfe98;&#xfb8b;" horiz-adv-x="1021" 
d="M962 0q-135 0 -213 45t-107 145h-98q-16 0 -32.5 9t-16.5 16v243q0 11 18.5 17t30.5 6h373v-127q0 -19 13 -38.5t54 -21.5h37v-294h-59zM633 982h525v-252h-525v252zM510 187q-41 -167 -105.5 -294t-131.5 -230l-246 162q47 70 87 142.5t69.5 151.5t49 168t27.5 191h291
v-291h-41zM561 966v-223h-581v223h176q-15 21 -23 43.5t-8 48.5q0 60 42 101t105 41q60 0 102 -41t42 -101q0 -26 -8.5 -48.5t-22.5 -43.5h176z" />
    <glyph glyph-name="_451.8" unicode="&#xfe9c;&#xfb8b;" horiz-adv-x="1035" 
d="M976 0q-135 0 -213 45t-107 145h-98q-16 0 -32.5 9t-16.5 16v243q0 11 18.5 17t30.5 6h373v-127q0 -19 13 -38.5t54 -21.5h37v-294h-59zM1242 946v-223h-581v223h176q-15 21 -23 43.5t-8 48.5q0 60 42 101t105 41q60 0 102 -41t42 -101q0 -26 -8.5 -48.5t-22.5 -43.5h176
zM524 187q-41 -167 -105.5 -294t-131.5 -230l-246 162q47 70 87 142.5t69.5 151.5t49 168t27.5 191h291v-291h-41zM596 946v-223h-581v223h176q-15 21 -23 43.5t-8 48.5q0 60 42 101t105 41q60 0 102 -41t42 -101q0 -26 -8.5 -48.5t-22.5 -43.5h176z" />
    <glyph glyph-name="_451.9" unicode="&#xfef4;&#xfb8b;" horiz-adv-x="1035" 
d="M976 0q-135 0 -213 45t-107 145h-98q-16 0 -32.5 9t-16.5 16v243q0 11 18.5 17t30.5 6h373v-127q0 -19 13 -38.5t54 -21.5h37v-294h-59zM827 696q-75 0 -126.5 51t-51.5 127q0 74 51.5 125t126.5 51q74 0 125 -51t51 -125q0 -76 -51 -127t-125 -51zM524 187
q-41 -167 -105.5 -294t-131.5 -230l-246 162q47 70 87 142.5t69.5 151.5t49 168t27.5 191h291v-291h-41zM575 939v-223h-581v223h176q-15 21 -23 43.5t-8 48.5q0 60 42 101t105 41q60 0 102 -41t42 -101q0 -26 -8.5 -48.5t-22.5 -43.5h176z" />
    <glyph glyph-name="_451.10" unicode="&#xfbff;&#xfb8b;" horiz-adv-x="1028" 
d="M969 0q-135 0 -213 45t-107 145h-98q-16 0 -32.5 9t-16.5 16v243q0 11 18.5 17t30.5 6h373v-127q0 -19 13 -38.5t54 -21.5h37v-294h-59zM416 -162h524v-252h-524v252zM517 187q-41 -167 -105.5 -294t-131.5 -230l-246 162q47 70 87 142.5t69.5 151.5t49 168t27.5 191h291
v-291h-41zM809 884v-223h-581v223h176q-15 21 -23 43.5t-8 48.5q0 60 42 101t105 41q60 0 102 -41t42 -101q0 -26 -8.5 -48.5t-22.5 -43.5h176z" />
    <glyph glyph-name="_451.11" unicode="&#xfe8c;&#xfb8b;" horiz-adv-x="1028" 
d="M969 0q-135 0 -213 45t-107 145h-98q-16 0 -32.5 9t-16.5 16v243q0 11 18.5 17t30.5 6h373v-127q0 -19 13 -38.5t54 -21.5h37v-294h-59zM1148 886l-397 -235l-84 141l65 41q-53 47 -67.5 101.5t-3.5 97.5q8 37 30.5 70.5t61.5 58t92 38t121 7.5l-14 -164
q-60 4 -91.5 -13.5t-35.5 -33.5q-5 -12 11.5 -31.5t51.5 -38.5l176 105zM517 187q-41 -167 -105.5 -294t-131.5 -230l-246 162q47 70 87 142.5t69.5 151.5t49 168t27.5 191h291v-291h-41zM589 904v-223h-581v223h176q-15 21 -23 43.5t-8 48.5q0 60 42 101t105 41
q60 0 102 -41t42 -101q0 -26 -8.5 -48.5t-22.5 -43.5h176z" />
    <glyph glyph-name="_451.12" unicode="&#xfeb7;&#xfb8b;" horiz-adv-x="1873" 
d="M897 481v-88q0 -29 14.5 -61.5t57.5 -39.5h43q41 2 57.5 25t20.5 51q2 8 2 25v55h293v-55q0 -17 2 -25q4 -28 21 -51t56 -25q25 2 40.5 12.5t24.5 25t12 31.5t3 32v112h293v-219q0 -286 -321 -286h-45q-127 0 -203 45q-15 6 -29 20q-8 -6 -14 -11t-17 -9q-26 -17 -59 -28
t-74 -15q-14 -2 -28.5 -2h-30.5h-55q-263 0 -312 190h-98q-16 0 -32.5 9t-16.5 16v243q0 11 18.5 17t30.5 6h346zM1530 925v-223h-582v223h176q-14 21 -22 43.5t-8 48.5q0 60 42 101t105 41q60 0 102 -41t42 -101q0 -26 -8.5 -48.5t-22.5 -43.5h176zM517 187
q-41 -167 -105.5 -294t-131.5 -230l-246 162q47 70 87 142.5t69.5 151.5t49 168t27.5 191h291v-291h-41zM740 918v-223h-581v223h176q-15 21 -23 43.5t-8 48.5q0 60 42 101t105 41q60 0 102 -41t42 -101q0 -26 -8.5 -48.5t-22.5 -43.5h176z" />
    <glyph glyph-name="_451.13" unicode="&#xfeb8;&#xfb8b;" horiz-adv-x="2021" 
d="M1950 0q-127 0 -203 45q-12 4 -29 18q-12 -12 -28 -18q-76 -45 -203 -45h-16q-129 0 -205 45q-17 8 -27 18q-8 -4 -15 -9t-16 -9q-55 -33 -133 -43q-14 0 -28.5 -1t-30.5 -1h-57q-263 0 -308 190h-100q-16 0 -32.5 9t-16.5 16v243q0 11 18.5 17t30.5 6h346v-88
q0 -29 14.5 -61.5t57.5 -39.5h43q41 2 57.5 25t20.5 51q2 8 2 25v53h290v-53q0 -6 1.5 -12.5t1.5 -12.5q4 -28 22 -52t64 -24h16q43 0 61.5 24t22.5 52v78h293v-53q0 -17 2 -25q4 -28 22.5 -51t61.5 -23h71v-294h-71zM1559 925v-223h-582v223h176q-14 21 -22.5 43.5
t-8.5 48.5q0 60 42 101t106 41q59 0 101 -41t42 -101q0 -26 -8 -48.5t-23 -43.5h177zM517 187q-41 -167 -105.5 -294t-131.5 -230l-246 162q47 70 87 142.5t69.5 151.5t49 168t27.5 191h291v-291h-41zM726 911v-223h-581v223h176q-15 21 -23 43.5t-8 48.5q0 60 42 101
t105 41q60 0 102 -41t42 -101q0 -26 -8.5 -48.5t-22.5 -43.5h176z" />
    <glyph glyph-name="_451.14" unicode="&#xfebf;&#xfb8b;" horiz-adv-x="2011" 
d="M969 481v-125q0 -19 12 -40.5t53 -23.5h166l-170 142q31 37 84 94t115.5 112.5t132.5 99.5t135 54q82 14 161 -21.5t144 -117.5q37 -43 67 -110.5t47 -140.5t18 -142.5t-19 -120.5q-20 -47 -54 -76t-78 -44t-98.5 -19.5t-115.5 -4.5h-557q-137 0 -214 45.5t-106 147.5
h-100q-16 0 -32.5 9t-16.5 16v243q0 11 18.5 17t30.5 6h377zM1569 292q27 0 44 5.5t23 9.5q3 20 -6.5 50t-24 57.5t-32.5 51t-33 31.5q-16 -6 -42.5 -24.5t-58.5 -46t-67 -62.5t-67 -72h264zM1145 833q-76 0 -127 51t-51 127q0 74 51 125t127 51q74 0 125 -51t51 -125
q0 -76 -51 -127t-125 -51zM558 187q-41 -167 -105.5 -294t-131.5 -230l-246 162q47 70 87 142.5t69.5 151.5t49 168t27.5 191h291v-291h-41zM754 932v-223h-581v223h176q-15 21 -23 43.5t-8 48.5q0 60 42 101t105 41q60 0 102 -41t42 -101q0 -26 -8.5 -48.5t-22.5 -43.5h176
z" />
    <glyph glyph-name="_451.15" unicode="&#xfec0;&#xfb8b;" horiz-adv-x="1982" 
d="M962 -3q-137 0 -216 45.5t-108 147.5h-94q-16 0 -32.5 9t-16.5 16v243q0 11 18.5 17t30.5 6h375v-123q0 -23 12 -43.5t53 -22.5h168l-170 140q31 37 82 94t113.5 112.5t132.5 99.5t135 56q84 14 162 -21.5t143 -117.5q51 -62 87 -163t44 -200h107v-295h-1026zM1519 292
q57 0 67 19q0 18 -9 47t-23.5 57.5t-31.5 51t-34 32.5q-35 -14 -101.5 -72.5t-133.5 -134.5h266zM1103 833q-76 0 -127 51t-51 127q0 74 51 125t127 51q74 0 125 -51t51 -125q0 -76 -51 -127t-125 -51zM510 187q-41 -167 -105.5 -294t-131.5 -230l-246 162q47 70 87 142.5
t69.5 151.5t49 168t27.5 191h291v-291h-41zM747 897v-223h-581v223h176q-15 21 -23 43.5t-8 48.5q0 60 42 101t105 41q60 0 102 -41t42 -101q0 -26 -8.5 -48.5t-22.5 -43.5h176z" />
    <glyph glyph-name="_451.16" unicode="&#xfebb;&#xfb8b;" horiz-adv-x="2011" 
d="M969 481v-125q0 -19 12 -40.5t53 -23.5h166l-170 142q31 37 84 94t115.5 112.5t132.5 99.5t135 54q82 14 161 -21.5t144 -117.5q37 -43 67 -110.5t47 -140.5t18 -142.5t-19 -120.5q-20 -47 -54 -76t-78 -44t-98.5 -19.5t-115.5 -4.5h-557q-137 0 -214 45.5t-106 147.5
h-100q-16 0 -32.5 9t-16.5 16v243q0 11 18.5 17t30.5 6h377zM1569 292q27 0 44 5.5t23 9.5q3 20 -6.5 50t-24 57.5t-32.5 51t-33 31.5q-16 -6 -42.5 -24.5t-58.5 -46t-67 -62.5t-67 -72h264zM558 187q-41 -167 -105.5 -294t-131.5 -230l-246 162q47 70 87 142.5t69.5 151.5
t49 168t27.5 191h291v-291h-41zM967 918v-223h-581v223h176q-15 21 -23 43.5t-8 48.5q0 60 42 101t105 41q60 0 102 -41t42 -101q0 -26 -8.5 -48.5t-22.5 -43.5h176z" />
    <glyph glyph-name="_451.17" unicode="&#xfebc;&#xfb8b;" horiz-adv-x="1982" 
d="M962 -3q-137 0 -216 45.5t-108 147.5h-94q-16 0 -32.5 9t-16.5 16v243q0 11 18.5 17t30.5 6h375v-123q0 -23 12 -43.5t53 -22.5h168l-170 140q31 37 82 94t113.5 112.5t132.5 99.5t135 56q84 14 162 -21.5t143 -117.5q51 -62 87 -163t44 -200h107v-295h-1026zM1519 292
q57 0 67 19q0 18 -9 47t-23.5 57.5t-31.5 51t-34 32.5q-35 -14 -101.5 -72.5t-133.5 -134.5h266zM510 187q-41 -167 -105.5 -294t-131.5 -230l-246 162q47 70 87 142.5t69.5 151.5t49 168t27.5 191h291v-291h-41zM919 918v-223h-581v223h176q-15 21 -23 43.5t-8 48.5
q0 60 42 101t105 41q60 0 102 -41t42 -101q0 -26 -8.5 -48.5t-22.5 -43.5h176z" />
    <glyph glyph-name="_451.18" unicode="&#xfeb3;&#xfeb0;" horiz-adv-x="1873" 
d="M897 481v-88q0 -29 14.5 -61.5t57.5 -39.5h43q41 2 57.5 25t20.5 51q2 8 2 25v55h293v-55q0 -17 2 -25q4 -28 21 -51t56 -25q25 2 40.5 12.5t24.5 25t12 31.5t3 32v112h293v-219q0 -286 -321 -286h-45q-127 0 -203 45q-15 6 -29 20q-8 -6 -14 -11t-17 -9q-26 -17 -59 -28
t-74 -15q-14 -2 -28.5 -2h-30.5h-55q-263 0 -312 190h-98q-16 0 -32.5 9t-16.5 16v243q0 11 18.5 17t30.5 6h346zM517 187q-41 -167 -105.5 -294t-131.5 -230l-246 162q47 70 87 142.5t69.5 151.5t49 168t27.5 191h291v-291h-41zM425 685q-76 0 -127 51.5t-51 126.5
q0 74 51 125t127 51q74 0 125 -51t51 -125q0 -75 -51 -126.5t-125 -51.5z" />
    <glyph glyph-name="_451.19" unicode="&#xfeb4;&#xfeb0;" horiz-adv-x="2021" 
d="M1950 0q-127 0 -203 45q-12 4 -29 18q-12 -12 -28 -18q-76 -45 -203 -45h-16q-129 0 -205 45q-17 8 -27 18q-8 -4 -15 -9t-16 -9q-55 -33 -133 -43q-14 0 -28.5 -1t-30.5 -1h-57q-263 0 -308 190h-100q-16 0 -32.5 9t-16.5 16v243q0 11 18.5 17t30.5 6h346v-88
q0 -29 14.5 -61.5t57.5 -39.5h43q41 2 57.5 25t20.5 51q2 8 2 25v53h290v-53q0 -6 1.5 -12.5t1.5 -12.5q4 -28 22 -52t64 -24h16q43 0 61.5 24t22.5 52v78h293v-53q0 -17 2 -25q4 -28 22.5 -51t61.5 -23h71v-294h-71zM517 187q-41 -167 -105.5 -294t-131.5 -230l-246 162
q47 70 87 142.5t69.5 151.5t49 168t27.5 191h291v-291h-41zM425 685q-76 0 -127 51.5t-51 126.5q0 74 51 125t127 51q74 0 125 -51t51 -125q0 -75 -51 -126.5t-125 -51.5z" />
    <glyph glyph-name="_451.20" unicode="&#xfeb3;&#xfeae;" horiz-adv-x="1873" 
d="M897 481v-88q0 -29 14.5 -61.5t57.5 -39.5h43q41 2 57.5 25t20.5 51q2 8 2 25v55h293v-55q0 -17 2 -25q4 -28 21 -51t56 -25q25 2 40.5 12.5t24.5 25t12 31.5t3 32v112h293v-219q0 -286 -321 -286h-45q-127 0 -203 45q-15 6 -29 20q-8 -6 -14 -11t-17 -9q-26 -17 -59 -28
t-74 -15q-14 -2 -28.5 -2h-30.5h-55q-263 0 -312 190h-98q-16 0 -32.5 9t-16.5 16v243q0 11 18.5 17t30.5 6h346zM517 187q-41 -167 -105.5 -294t-131.5 -230l-246 162q47 70 87 142.5t69.5 151.5t49 168t27.5 191h291v-291h-41z" />
    <glyph glyph-name="_472" unicode="&#xfeb4;&#xfeae;" horiz-adv-x="2021" 
d="M1950 0q-127 0 -203 45q-12 4 -29 18q-12 -12 -28 -18q-76 -45 -203 -45h-16q-129 0 -205 45q-17 8 -27 18q-8 -4 -15 -9t-16 -9q-55 -33 -133 -43q-14 0 -28.5 -1t-30.5 -1h-57q-263 0 -308 190h-100q-16 0 -32.5 9t-16.5 16v243q0 11 18.5 17t30.5 6h346v-88
q0 -29 14.5 -61.5t57.5 -39.5h43q41 2 57.5 25t20.5 51q2 8 2 25v53h290v-53q0 -6 1.5 -12.5t1.5 -12.5q4 -28 22 -52t64 -24h16q43 0 61.5 24t22.5 52v78h293v-53q0 -17 2 -25q4 -28 22.5 -51t61.5 -23h71v-294h-71zM517 187q-41 -167 -105.5 -294t-131.5 -230l-246 162
q47 70 87 142.5t69.5 151.5t49 168t27.5 191h291v-291h-41z" />
    <glyph glyph-name="_472.1" unicode="&#xfeb3;&#xfb8b;" horiz-adv-x="1873" 
d="M897 481v-88q0 -29 14.5 -61.5t57.5 -39.5h43q41 2 57.5 25t20.5 51q2 8 2 25v55h293v-55q0 -17 2 -25q4 -28 21 -51t56 -25q25 2 40.5 12.5t24.5 25t12 31.5t3 32v112h293v-219q0 -286 -321 -286h-45q-127 0 -203 45q-15 6 -29 20q-8 -6 -14 -11t-17 -9q-26 -17 -59 -28
t-74 -15q-14 -2 -28.5 -2h-30.5h-55q-263 0 -312 190h-98q-16 0 -32.5 9t-16.5 16v243q0 11 18.5 17t30.5 6h346zM517 187q-41 -167 -105.5 -294t-131.5 -230l-246 162q47 70 87 142.5t69.5 151.5t49 168t27.5 191h291v-291h-41zM740 918v-223h-581v223h176q-15 21 -23 43.5
t-8 48.5q0 60 42 101t105 41q60 0 102 -41t42 -101q0 -26 -8.5 -48.5t-22.5 -43.5h176z" />
    <glyph glyph-name="_472.2" unicode="&#xfeb4;&#xfb8b;" horiz-adv-x="2021" 
d="M1950 0q-127 0 -203 45q-12 4 -29 18q-12 -12 -28 -18q-76 -45 -203 -45h-16q-129 0 -205 45q-17 8 -27 18q-8 -4 -15 -9t-16 -9q-55 -33 -133 -43q-14 0 -28.5 -1t-30.5 -1h-57q-263 0 -308 190h-100q-16 0 -32.5 9t-16.5 16v243q0 11 18.5 17t30.5 6h346v-88
q0 -29 14.5 -61.5t57.5 -39.5h43q41 2 57.5 25t20.5 51q2 8 2 25v53h290v-53q0 -6 1.5 -12.5t1.5 -12.5q4 -28 22 -52t64 -24h16q43 0 61.5 24t22.5 52v78h293v-53q0 -17 2 -25q4 -28 22.5 -51t61.5 -23h71v-294h-71zM517 187q-41 -167 -105.5 -294t-131.5 -230l-246 162
q47 70 87 142.5t69.5 151.5t49 168t27.5 191h291v-291h-41zM726 911v-223h-581v223h176q-15 21 -23 43.5t-8 48.5q0 60 42 101t105 41q60 0 102 -41t42 -101q0 -26 -8.5 -48.5t-22.5 -43.5h176z" />
    <glyph glyph-name="uniFE8D" unicode="&#x627;" horiz-adv-x="442" arabic-form="isolated" 
d="M82 1006h299v-1006h-299v1006z" />
    <glyph glyph-name="uniFE8E" unicode="&#x627;" horiz-adv-x="489" arabic-form="final" 
d="M403 0q-321 0 -321 287v719h295v-611q0 -30 16.5 -65t69.5 -35h26v-295h-86z" />
    <glyph glyph-name="uniFB92" unicode="&#x6af;" horiz-adv-x="1475" arabic-form="isolated" 
d="M1348 399q45 -51 54 -116.5t-20 -128.5q-32 -72 -96.5 -113t-148.5 -41h-818q-34 0 -76 17.5t-78 50t-59.5 77.5t-23.5 101v266h297v-109q0 -36 9 -58.5t24.5 -33t35 -13.5t37.5 -3h557l-436 502l234 104l-60 131l416 182l59 -131l136 62l120 -271l-417 -184z" />
    <glyph glyph-name="uniFB93" unicode="&#x6af;" horiz-adv-x="1538" arabic-form="final" 
d="M1516 0q-48 0 -100 9t-120 46q-71 -55 -166 -55h-815q-34 0 -75 17.5t-76 50t-58.5 76.5t-23.5 100v266h293v-109q0 -36 10 -57.5t25.5 -33t35 -13.5t37.5 -2h553l-434 498l217 96l-61 133l413 184l60 -133l151 66l119 -269l-414 -184l263 -301q26 -31 44.5 -48.5
t35 -26.5t36 -12t50.5 -3h22v-295h-22z" />
    <glyph glyph-name="uniFB94" unicode="&#x6af;" horiz-adv-x="846" arabic-form="initial" 
d="M418 295l-434 496l215 94l-60 135l414 182l59 -131l152 68l119 -271l-416 -184l254 -289q45 -51 54 -115.5t-19 -129.5q-33 -70 -97.5 -110t-146.5 -40h-512q-16 0 -32.5 9t-16.5 16v247q0 11 18.5 17t30.5 6h418z" />
    <glyph glyph-name="uniFB95" unicode="&#x6af;" horiz-adv-x="932" arabic-form="medial" 
d="M897 0q-47 0 -98 9t-119 46q-35 -26 -77 -40.5t-89 -14.5h-514q-16 0 -32.5 9t-16.5 16v247q0 11 18.5 17t30.5 6h420l-434 498l194 88l-65 145l411 182l66 -145l174 76l119 -269l-414 -184l262 -301q27 -29 45.5 -47.5t34.5 -27.5t35.5 -12t48.5 -3h35v-295h-35z" />
    <glyph glyph-name="uniFB50" unicode="&#x671;" horiz-adv-x="442" arabic-form="isolated" 
d="M82 1006h299v-1006h-299v1006zM375 1192q18 0 24 6q0 14 -12 38t-22 30q-13 -4 -37.5 -25.5t-48.5 -48.5h96zM459 1321q24 -33 39.5 -80t-0.5 -84q-15 -35 -47.5 -53.5t-75.5 -18.5h-240l-43 62q-20 -8 -47 -29.5t-53 -50.5l-76 102q31 31 69 52.5t72 38.5q39 18 78 30
l55 -98h52l-60 49q11 14 29 34.5t41.5 40t48.5 36t47 20.5q60 10 111 -51z" />
    <glyph glyph-name="uniFB51" unicode="&#x671;" horiz-adv-x="489" arabic-form="final" 
d="M403 0q-321 0 -321 287v719h295v-611q0 -30 16.5 -65t69.5 -35h26v-295h-86zM377 1192q18 0 24 6q0 14 -12 38t-22 30q-13 -4 -37.5 -25.5t-48.5 -48.5h96zM461 1321q24 -33 39.5 -80t-0.5 -84q-15 -35 -47.5 -53.5t-75.5 -18.5h-240l-43 62q-20 -8 -47 -29.5t-53 -50.5
l-76 102q31 31 69 52.5t72 38.5q39 18 78 30l56 -98h51l-60 49q11 14 29 34.5t42 40t48.5 36t46.5 20.5q60 10 111 -51z" />
    <glyph glyph-name="uniFB56" unicode="&#x67e;" horiz-adv-x="1538" arabic-form="isolated" 
d="M1477 508v-221q0 -287 -322 -287h-752q-321 0 -321 287v221h295v-113q0 -30 16.5 -65t69.5 -35h633q53 0 70.5 35t17.5 65v113h293zM885 -387q14 -21 22 -43.5t8 -48.5q0 -60 -42 -101t-101 -41q-63 0 -105 41t-42 101q0 26 8 48.5t22 43.5h-176v223h582v-223h-176z" />
    <glyph glyph-name="uniFB57" unicode="&#x67e;" horiz-adv-x="1563" arabic-form="final" 
d="M1534 0q-123 0 -201 45q-20 10 -30 21q-7 -7 -14 -12t-15 -9q-84 -45 -203 -45h-668q-321 0 -321 289v219h295v-113q0 -30 16.5 -65t69.5 -35h608q39 0 61.5 28.5t22.5 71.5v113h293v-113q0 -39 20.5 -68.5t65.5 -31.5h29v-295h-29zM827 -385q15 -21 23 -43.5t8 -48.5
q0 -60 -42 -100.5t-101 -40.5q-64 0 -106 40.5t-42 100.5q0 26 8.5 48.5t22.5 43.5h-176v223h582v-223h-177z" />
    <glyph glyph-name="uniFB58" unicode="&#x67e;" horiz-adv-x="666" arabic-form="initial" 
d="M604 512v-266q0 -56 -23.5 -102t-59.5 -77.5t-77 -49t-75 -17.5h-369q-16 0 -28.5 9t-12.5 16v247q0 11 14.5 17t26.5 6h201q18 0 37.5 2t35 13.5t25.5 33t10 59.5v109h295zM350 -381q15 -20 23 -42.5t8 -49.5q0 -59 -42 -100t-101 -41q-64 0 -106 41t-42 100
q0 27 8 49.5t23 42.5h-176v223h581v-223h-176z" />
    <glyph glyph-name="uniFB59" unicode="&#x67e;" horiz-adv-x="602" arabic-form="medial" 
d="M532 0q-129 0 -200 45q-17 4 -31 21q-14 -15 -29 -21q-77 -45 -202 -45h-70q-16 0 -32.5 9t-16.5 16v247q0 11 18.5 17t30.5 6h70q39 0 61.5 27.5t22.5 72.5v113h292v-113q0 -37 20.5 -68.5t65.5 -31.5h70v-295h-70zM412 -385q14 -21 22 -43.5t8 -48.5q0 -60 -42 -100.5
t-101 -40.5q-63 0 -105 40.5t-42 100.5q0 26 8 48.5t22 43.5h-176v223h582v-223h-176z" />
    <glyph glyph-name="uniFB7A" unicode="&#x686;" horiz-adv-x="1018" arabic-form="isolated" 
d="M530 0q-28 0 -67 -15.5t-68 -47.5q-18 -23 -28.5 -55t-8.5 -63.5t17.5 -61t48.5 -46.5q53 -28 129 -23t147 42l136 -260q-74 -39 -152 -57.5t-154 -18.5q-79 0 -157 23.5t-141.5 69.5t-107.5 114.5t-56 156.5q-17 107 10.5 202t93.5 169q57 66 137 108t166 54
q-4 28 -10 52t-16 40q-13 16 -31.5 28.5t-59.5 12.5h-192v268v15h272q76 0 148.5 -35t115.5 -92q23 -31 40.5 -69t25.5 -87q4 -31 11 -55.5t24 -40.5q26 -33 110 -33h43v-295h-426zM627 -938q14 -20 22 -43t8 -49q0 -60 -42 -100.5t-101 -40.5q-63 0 -105 40.5t-42 100.5
q0 26 8 49t22 43h-176v223h582v-223h-176z" />
    <glyph glyph-name="uniFB7B" unicode="&#x686;" horiz-adv-x="938" arabic-form="final" 
d="M539 0h-2q-31 0 -70 -15.5t-68 -47.5q-18 -23 -28.5 -55t-8 -63.5t17.5 -61t48 -46.5q55 -28 130 -23t147 42l135 -260q-74 -39 -152 -57.5t-153 -18.5q-80 0 -158 23.5t-141.5 69.5t-107.5 114.5t-56 156.5q-13 101 10.5 190t79 159.5t136.5 118.5t181 65q-4 28 -9 52
t-17 40q-11 16 -31.5 28.5t-59.5 12.5h-192v268v15h272q76 0 149 -35t116 -92q22 -31 39.5 -69t25.5 -87q10 -66 40 -97.5t108 -31.5h18v-295h-399zM627 -938q14 -20 22 -43t8 -49q0 -60 -42 -100.5t-101 -40.5q-63 0 -105 40.5t-42 100.5q0 26 8 49t22 43h-176v223h582
v-223h-176z" />
    <glyph glyph-name="uniFB7C" unicode="&#x686;" horiz-adv-x="1030" arabic-form="initial" 
d="M471 295q-2 55 -27 88q-12 16 -34.5 28.5t-51.5 12.5h-256v283h334q74 0 146.5 -35t115.5 -92q25 -31 41.5 -69t24.5 -87q4 -31 11 -55.5t24 -40.5q26 -33 112 -33h78v-295h-991q-16 0 -32.5 9t-16.5 16v247q0 11 18.5 17t30.5 6h473zM555 -387q14 -21 22.5 -43.5
t8.5 -48.5q0 -60 -42 -101t-102 -41q-63 0 -105 41t-42 101q0 26 8 48.5t23 43.5h-176v223h581v-223h-176z" />
    <glyph glyph-name="uniFB7D" unicode="&#x686;" horiz-adv-x="954" arabic-form="medial" 
d="M0 0q-16 0 -32.5 9t-16.5 16v247q0 11 18.5 17t30.5 6h469q-4 59 -27 88q-12 16 -33.5 28.5t-50.5 12.5h-256v283h332q62 0 116 -21.5t98 -58.5t74 -89.5t40 -113.5q6 -33 15 -56.5t24.5 -39t41 -23.5t66.5 -10h43v-295h-952zM580 -387q14 -21 22 -43.5t8 -48.5
q0 -60 -42 -101t-101 -41q-64 0 -106 41t-42 101q0 26 8.5 48.5t22.5 43.5h-176v223h582v-223h-176z" />
    <glyph glyph-name="uniFB8A" unicode="&#x698;" horiz-adv-x="718" arabic-form="isolated" 
d="M106 -168q61 49 107 93t79 101.5t52.5 138.5t27.5 204l295 -19q-10 -151 -37 -259.5t-73 -193.5t-112.5 -155t-154.5 -139zM829 735v-223h-582v223h176q-14 21 -22 43.5t-8 48.5q0 60 41.5 101t105.5 41q59 0 101 -41t42 -101q0 -26 -8 -48.5t-22 -43.5h176z" />
    <glyph glyph-name="uniFB8B" unicode="&#x698;" horiz-adv-x="711" arabic-form="final" 
d="M611 0q-25 -63 -56.5 -116.5t-70.5 -101.5t-86 -92t-105 -91l-190 233q55 43 99 84t77 92t54.5 120t31.5 167h346v-295h-100zM811 735v-223h-581v223h176q-14 21 -22.5 43.5t-8.5 48.5q0 60 42 101t106 41q59 0 101 -41t42 -101q0 -26 -8 -48.5t-23 -43.5h176z" />
    <glyph glyph-name="uniFB8E" unicode="&#x6a9;" horiz-adv-x="1466" arabic-form="isolated" 
d="M1348 399q43 -51 53 -116.5t-19 -128.5q-32 -72 -97.5 -113t-147.5 -41h-818q-34 0 -76 17.5t-78 50t-59.5 77.5t-23.5 101v266h297v-109q0 -36 9 -58.5t24.5 -33t35 -13.5t37.5 -3h557l-436 502l785 348l118 -271l-415 -184z" />
    <glyph glyph-name="uniFB8F" unicode="&#x6a9;" horiz-adv-x="1495" arabic-form="final" 
d="M1507 0q-45 0 -95 10t-116 45q-71 -55 -166 -55h-813q-34 0 -76 17.5t-77 50t-58.5 76.5t-23.5 100v266h295v-109q0 -36 9 -57.5t24.5 -33t35 -13.5t37.5 -2h553l-432 498l778 346l121 -269l-413 -184l260 -301q30 -33 49.5 -50.5t38 -26.5t42 -11t60.5 -2h10v-295h-43z
" />
    <glyph glyph-name="uniFB90" unicode="&#x6a9;" horiz-adv-x="844" arabic-form="initial" 
d="M422 295l-438 502l790 352l119 -275l-420 -184l256 -291q45 -51 54.5 -117.5t-19.5 -131.5q-33 -72 -98.5 -111t-147.5 -39h-518q-16 0 -32.5 9t-16.5 16v247q0 11 18.5 17t30.5 6h422z" />
    <glyph glyph-name="uniFB91" unicode="&#x6a9;" horiz-adv-x="928" arabic-form="medial" 
d="M928 0h-54.5t-55.5 4t-63.5 15.5t-76.5 35.5q-35 -26 -77 -40.5t-89 -14.5h-512q-16 0 -32.5 9t-16.5 16v247q0 11 18.5 17t30.5 6h418l-432 498l778 346l121 -269l-416 -184l262 -301q29 -31 48.5 -49.5t38 -27.5t39 -11t54.5 -2h17v-295v0z" />
    <glyph glyph-name="uniFBA4" unicode="&#x6c0;" horiz-adv-x="885" arabic-form="isolated" 
d="M455 -80q-78 0 -145.5 28.5t-118 79t-80 118t-29.5 143.5t29.5 143.5t80 118.5t118 79.5t145.5 28.5q75 0 143 -28.5t118 -79.5t78.5 -118.5t28.5 -143.5t-28.5 -143.5t-78.5 -118t-118 -79t-143 -28.5zM455 362q-33 0 -53.5 -21.5t-20.5 -51.5q0 -29 20.5 -51.5
t53.5 -22.5q28 0 50.5 22.5t22.5 51.5q0 30 -22.5 51.5t-50.5 21.5zM244 926l166 80l-123 135l295 170l82 -135l-132 -74l136 -152l-357 -168z" />
    <glyph glyph-name="uniFBA5" unicode="&#x6c0;" horiz-adv-x="1008" arabic-form="final" 
d="M754 0l-179 180q-53 -35 -125.5 -95t-140.5 -148l-231 180q76 98 156.5 168.5t147.5 117t110 69t47 24.5l94 43l244 -244h131v-295h-254zM420 817l166 80l-123 135l295 170l82 -135l-131 -74l135 -151l-357 -168z" />
    <glyph glyph-name="uniFBE8" unicode="&#x649;" horiz-adv-x="559" arabic-form="initial" 
d="M498 287q0 -287 -322 -287h-176q-16 0 -32.5 9t-16.5 16v247q0 11 18.5 17t30.5 6h117q51 0 68.5 35t17.5 65v113h295v-221z" />
    <glyph glyph-name="uniFBE9" unicode="&#x649;" horiz-adv-x="602" arabic-form="medial" 
d="M532 0q-129 0 -200 45q-17 4 -31 21q-14 -15 -29 -21q-77 -45 -202 -45h-70q-16 0 -32.5 9t-16.5 16v247q0 11 18.5 17t30.5 6h70q39 0 61.5 27.5t22.5 72.5v113h292v-113q0 -37 20.5 -68.5t65.5 -31.5h70v-295h-70z" />
    <glyph glyph-name="uniFBFC" unicode="&#x6cc;" horiz-adv-x="1294" arabic-form="isolated" 
d="M1329 453l-295 -215l215 -242l-104 -96q-4 -4 -37 -31t-87 -61.5t-129 -69.5t-163 -54.5t-186.5 -16.5t-202.5 44q-45 17 -97.5 51.5t-93 93t-59 145.5t3.5 210q10 55 25.5 104.5t29 87t23.5 60t10 24.5l264 -125q-12 -28 -24 -61q-10 -29 -21.5 -66.5t-19.5 -78.5
q-10 -52 -7 -82.5t14 -49t26.5 -27.5t31.5 -15q58 -25 125.5 -22t124 18.5t95 32l38.5 16.5l-225 262l555 399z" />
    <glyph glyph-name="uniFBFD" unicode="&#x6cc;" horiz-adv-x="1090" arabic-form="final" 
d="M1038 0l52 -190l-89 -58q-40 -28 -97.5 -58t-123 -54.5t-138.5 -40t-146 -15.5q-86 0 -167 25.5t-151 89.5q-100 90 -125.5 190.5t-10.5 197.5t55 184t75 151l10 18l260 -139l-10 -20q-39 -72 -64.5 -128.5t-33.5 -99.5t2 -75.5t41 -59.5q31 -29 75 -36t95 0t103 24.5
t98 40.5l-13 53h-162l43 295h474v-295h-52z" />
    <glyph glyph-name="uniFBFE" unicode="&#x6cc;" horiz-adv-x="666" arabic-form="initial" 
d="M604 512v-266q0 -56 -23.5 -102t-59.5 -77.5t-77 -49t-75 -17.5h-369q-16 0 -28.5 9t-12.5 16v247q0 11 14.5 17t26.5 6h201q18 0 37.5 2t35 13.5t25.5 33t10 59.5v109h295zM-27 -158h525v-252h-525v252z" />
    <glyph glyph-name="uniFBFF" unicode="&#x6cc;" horiz-adv-x="731" arabic-form="medial" 
d="M539 0q-129 0 -201 45q-16 4 -31 21q-14 -15 -28 -21q-78 -45 -203 -45h-76q-16 0 -32.5 9t-16.5 16v247q0 11 18.5 17t30.5 6h76q39 0 61.5 27.5t22.5 72.5v113h293v-113q0 -37 20.5 -68.5t65.5 -31.5h192v-295h-192zM51 -162h524v-252h-524v252z" />
    <glyph glyph-name="uniFE80" unicode="&#x621;" horiz-adv-x="799" arabic-form="isolated" 
d="M737 283l-528 -314l-113 191l88 51q-69 63 -88.5 134t-5.5 130q10 49 41 93t82 78t120.5 50.5t160.5 10.5l-17 -220q-82 7 -125 -14.5t-47 -44.5q-4 -18 18.5 -44t69.5 -48l232 137z" />
    <glyph glyph-name="uniFE81" unicode="&#x622;" horiz-adv-x="442" arabic-form="isolated" 
d="M82 1006h299v-1006h-299v1006zM-147 1202q77 66 137.5 90.5t111.5 24.5q31 0 59.5 -8.5t55.5 -18.5t51.5 -18t48.5 -8q31 0 71 18t101 72l115 -137q-92 -74 -160.5 -102t-126.5 -28q-30 0 -59 8.5t-56.5 17.5t-52 17.5t-45.5 8.5q-24 0 -56 -15.5t-79 -56.5z" />
    <glyph glyph-name="uniFE82" unicode="&#x622;" horiz-adv-x="489" arabic-form="final" 
d="M403 0q-321 0 -321 287v719h295v-611q0 -30 16.5 -65t69.5 -35h26v-295h-86zM-145 1202q77 66 137.5 90.5t111.5 24.5q31 0 60 -8.5t55.5 -18.5t51 -18t48.5 -8q31 0 71 18t102 72l114 -137q-92 -74 -160.5 -102t-126.5 -28q-30 0 -59 8.5t-56.5 17.5t-52 17.5t-45.5 8.5
q-24 0 -56 -15.5t-79 -56.5z" />
    <glyph glyph-name="uniFE83" unicode="&#x623;" horiz-adv-x="442" arabic-form="isolated" 
d="M82 1006h299v-1006h-299v1006zM475 1321l-397 -236l-84 142l65 41q-41 37 -58 79t-17 80q0 39 17 77t51 69t85 50t119 19q10 0 18.5 -1t18.5 -1l-14 -163q-68 0 -98.5 -16.5t-30.5 -37.5q0 -28 65 -63l176 104z" />
    <glyph glyph-name="uniFE84" unicode="&#x623;" horiz-adv-x="489" arabic-form="final" 
d="M403 0q-321 0 -321 287v719h295v-611q0 -30 16.5 -65t69.5 -35h26v-295h-86zM475 1321l-397 -236l-84 142l65 41q-41 37 -58 79t-17 80q0 39 17 77t51 69t85 50t119 19q10 0 18.5 -1t18.5 -1l-14 -163q-68 0 -98.5 -16.5t-30.5 -37.5q0 -28 65 -63l176 104z" />
    <glyph glyph-name="uniFE85" unicode="&#x624;" horiz-adv-x="868" arabic-form="isolated" 
d="M455 645q102 0 170.5 -50t108.5 -117.5t56.5 -137.5t16.5 -109q0 -174 -98.5 -331.5t-296.5 -270.5q-23 25 -47.5 54.5t-51 59.5t-50 57.5t-42.5 49.5q58 29 108 63t91 87h-285q-14 23 -33.5 88.5t-19.5 151.5q0 65 19.5 137t63.5 131t115.5 98t174.5 39zM530 295
q0 39 -31.5 68.5t-70.5 29.5t-70.5 -28.5t-31.5 -69.5h204zM692 985l-397 -235l-84 141l65 41q-53 47 -67 101t-4 97q8 37 30.5 71t61.5 58.5t92 38t121 7.5l-14 -164q-60 4 -91.5 -13.5t-35.5 -33.5q-4 -13 12 -32.5t51 -37.5l176 104z" />
    <glyph glyph-name="uniFE86" unicode="&#x624;" horiz-adv-x="868" arabic-form="final" 
d="M758 0q-45 -109 -131 -203t-215 -168q-23 25 -47.5 54.5t-50 59.5t-49 57.5t-42.5 49.5q58 29 108 63t91 87h-285q-16 23 -35.5 88.5t-19.5 151.5q0 65 19.5 137t64.5 131t116.5 98t174.5 39q86 0 147.5 -36t102.5 -90t63.5 -114.5t30.5 -109.5h67v-295h-110zM530 295
q0 39 -30.5 68.5t-71.5 29.5q-37 0 -68.5 -28.5t-31.5 -69.5h202zM690 983l-397 -235l-84 141l65 41q-53 47 -67 101t-4 97q8 37 30.5 71t61.5 58.5t92 38t121 7.5l-14 -164q-60 4 -91.5 -13.5t-35.5 -33.5q-5 -13 11.5 -32.5t51.5 -37.5l176 104z" />
    <glyph glyph-name="uniFE87" unicode="&#x625;" horiz-adv-x="442" arabic-form="isolated" 
d="M82 1006h299v-1006h-299v1006zM485 -444l-397 -238l-84 141l66 41q-54 47 -68 101.5t-4 97.5q8 37 30.5 70.5t61.5 58.5t92.5 38t120.5 7l-14 -164q-60 4 -91.5 -13.5t-35.5 -33.5q-4 -10 12 -30.5t51 -37.5l176 105z" />
    <glyph glyph-name="uniFE88" unicode="&#x625;" horiz-adv-x="489" arabic-form="final" 
d="M403 0q-321 0 -321 287v719h295v-611q0 -30 16.5 -65t69.5 -35h26v-295h-86zM539 -444l-398 -238l-84 141l66 41q-53 47 -67.5 101.5t-4.5 97.5q8 37 30.5 70.5t61.5 58.5t92.5 38t120.5 7l-14 -164q-59 4 -91 -13.5t-36 -33.5q-4 -10 12.5 -30.5t51.5 -37.5l176 105z
" />
    <glyph glyph-name="uniFE89" unicode="&#x626;" horiz-adv-x="1294" arabic-form="isolated" 
d="M1329 453l-295 -215l215 -242l-104 -96q-4 -4 -37 -31t-87 -61.5t-129 -69.5t-163 -54.5t-186.5 -16.5t-202.5 44q-45 17 -97.5 51.5t-93 93t-59 145.5t3.5 210q10 55 25.5 104.5t29 87t23.5 60t10 24.5l264 -125q-12 -28 -24 -61q-10 -29 -21.5 -66.5t-19.5 -78.5
q-10 -52 -7 -82.5t14 -49t26.5 -27.5t31.5 -15q58 -25 125.5 -22t124 18.5t95 32l38.5 16.5l-225 262l555 399zM762 737l-397 -235l-84 141l65 41q-53 47 -67.5 101.5t-4.5 97.5q9 37 31.5 70.5t61.5 58t92 38t121 7.5l-15 -164q-59 4 -91 -13.5t-36 -33.5
q-4 -12 12.5 -31.5t51.5 -38.5l176 105z" />
    <glyph glyph-name="uniFE8A" unicode="&#x626;" horiz-adv-x="1090" arabic-form="final" 
d="M1038 0l52 -190l-89 -58q-40 -28 -97.5 -58t-123 -54.5t-138.5 -40t-146 -15.5q-86 0 -167 25.5t-151 89.5q-100 90 -125.5 190.5t-10.5 197.5t55 184t75 151l10 18l260 -139l-10 -20q-39 -72 -64.5 -128.5t-33.5 -99.5t2 -75.5t41 -59.5q31 -29 75 -36t95 0t103 24.5
t98 40.5l-13 53h-162l43 295h474v-295h-52zM758 676l-398 -236l-84 142l66 41q-53 47 -67.5 101t-4.5 97q9 37 31.5 71t61 58.5t92 37.5t120.5 7l-14 -164q-59 5 -91 -12.5t-36 -34.5q-4 -12 12.5 -31.5t51.5 -37.5l176 104z" />
    <glyph glyph-name="uniFE8B" unicode="&#x626;" horiz-adv-x="580" arabic-form="initial" 
d="M498 287q0 -287 -322 -287h-176v295h117q51 0 68.5 35t17.5 65v113h295v-221zM575 891l-397 -236l-84 142l66 41q-54 47 -68 101t-4 97q8 37 30.5 71t61.5 58.5t92.5 38t120.5 6.5l-14 -163q-60 4 -91.5 -13.5t-35.5 -34.5q-4 -12 12.5 -31.5t50.5 -37.5l177 104z" />
    <glyph glyph-name="uniFE8C" unicode="&#x626;" horiz-adv-x="602" arabic-form="medial" 
d="M532 0q-129 0 -200 45q-17 4 -31 21q-14 -15 -29 -21q-77 -45 -202 -45h-70q-16 0 -32.5 9t-16.5 16v247q0 11 18.5 17t30.5 6h70q39 0 61.5 27.5t22.5 72.5v113h292v-113q0 -37 20.5 -68.5t65.5 -31.5h70v-295h-70zM543 942l-398 -235l-84 141l66 41q-53 47 -67.5 101
t-4.5 97q8 37 31 71t61.5 58.5t92 38t120.5 7.5l-14 -164q-59 4 -91 -13.5t-36 -33.5q-4 -13 12.5 -32.5t51.5 -37.5l176 104z" />
    <glyph glyph-name="uniFE8F" unicode="&#x628;" horiz-adv-x="1538" arabic-form="isolated" 
d="M1477 508v-221q0 -287 -322 -287h-752q-321 0 -321 287v221h295v-113q0 -30 16.5 -65t69.5 -35h633q53 0 70.5 35t17.5 65v113h293zM770 -473q-76 0 -127 51t-51 127q0 74 51 125t127 51q74 0 125 -51t51 -125q0 -76 -51 -127t-125 -51z" />
    <glyph glyph-name="uniFE90" unicode="&#x628;" horiz-adv-x="1563" arabic-form="final" 
d="M1534 0q-123 0 -201 45q-20 10 -30 21q-7 -7 -14 -12t-15 -9q-84 -45 -203 -45h-668q-321 0 -321 289v219h295v-113q0 -30 16.5 -65t69.5 -35h608q39 0 61.5 28.5t22.5 71.5v113h293v-113q0 -39 20.5 -68.5t65.5 -31.5h29v-295h-29zM713 -471q-76 0 -127 51t-51 127
q0 74 51 125t127 51q73 0 124.5 -51t51.5 -125q0 -76 -51.5 -127t-124.5 -51z" />
    <glyph glyph-name="uniFE91" unicode="&#x628;" horiz-adv-x="614" arabic-form="initial" 
d="M225 -467q-75 0 -126.5 51t-51.5 127q0 74 51.5 125t126.5 51q74 0 125 -51t51 -125q0 -76 -51 -127t-125 -51zM172 295q51 0 68.5 35t17.5 65v113h295v-221q0 -287 -322 -287h-231q-16 0 -32.5 9t-16.5 16v247q0 11 18.5 17t30.5 6h172z" />
    <glyph glyph-name="uniFE92" unicode="&#x628;" horiz-adv-x="602" arabic-form="medial" 
d="M532 0q-129 0 -200 45q-17 4 -31 21q-14 -15 -29 -21q-77 -45 -202 -45h-70q-16 0 -32.5 9t-16.5 16v247q0 11 18.5 17t30.5 6h70q39 0 61.5 27.5t22.5 72.5v113h292v-113q0 -37 20.5 -68.5t65.5 -31.5h70v-295h-70zM297 -471q-76 0 -127 51t-51 127q0 74 51 125t127 51
q74 0 125 -51t51 -125q0 -76 -51 -127t-125 -51z" />
    <glyph glyph-name="uniFE93" unicode="&#x629;" horiz-adv-x="885" arabic-form="isolated" 
d="M455 -80q-78 0 -145.5 28.5t-118 79t-80 118t-29.5 143.5t29.5 143.5t80 118.5t118 79.5t145.5 28.5q75 0 143 -28.5t118 -79.5t78.5 -118.5t28.5 -143.5t-28.5 -143.5t-78.5 -118t-118 -79t-143 -28.5zM455 362q-33 0 -53.5 -21.5t-20.5 -51.5q0 -29 20.5 -51.5
t53.5 -22.5q28 0 50.5 22.5t22.5 51.5q0 30 -22.5 51.5t-50.5 21.5zM193 1034h524v-252h-524v252z" />
    <glyph glyph-name="uniFE94" unicode="&#x629;" horiz-adv-x="1008" arabic-form="final" 
d="M754 0l-179 180q-53 -35 -125.5 -95t-140.5 -148l-231 180q76 98 156.5 168.5t147.5 117t110 69t47 24.5l94 43l244 -244h131v-295h-254zM369 926h524v-252h-524v252z" />
    <glyph glyph-name="uniFE95" unicode="&#x62a;" horiz-adv-x="1538" arabic-form="isolated" 
d="M1477 508v-221q0 -287 -322 -287h-752q-321 0 -321 287v221h295v-113q0 -30 16.5 -65t69.5 -35h633q53 0 70.5 35t17.5 65v113h293zM473 969h524v-252h-524v252z" />
    <glyph glyph-name="uniFE96" unicode="&#x62a;" horiz-adv-x="1563" arabic-form="final" 
d="M1534 0q-123 0 -201 45q-20 10 -30 21q-7 -7 -14 -12t-15 -9q-84 -45 -203 -45h-668q-321 0 -321 289v219h295v-113q0 -30 16.5 -65t69.5 -35h608q39 0 61.5 28.5t22.5 71.5v113h293v-113q0 -39 20.5 -68.5t65.5 -31.5h29v-295h-29zM475 969h524v-252h-524v252z" />
    <glyph glyph-name="uniFE97" unicode="&#x62a;" horiz-adv-x="559" arabic-form="initial" 
d="M498 287q0 -287 -322 -287h-176q-16 0 -32.5 9t-16.5 16v247q0 11 18.5 17t30.5 6h117q51 0 68.5 35t17.5 65v113h295v-221zM68 969h524v-252h-524v252z" />
    <glyph glyph-name="uniFE98" unicode="&#x62a;" horiz-adv-x="602" arabic-form="medial" 
d="M532 0q-129 0 -200 45q-17 4 -31 21q-14 -15 -29 -21q-77 -45 -202 -45h-70q-16 0 -32.5 9t-16.5 16v247q0 11 18.5 17t30.5 6h70q39 0 61.5 27.5t22.5 72.5v113h292v-113q0 -37 20.5 -68.5t65.5 -31.5h70v-295h-70zM35 969h524v-252h-524v252z" />
    <glyph glyph-name="uniFE99" unicode="&#x62b;" horiz-adv-x="1538" arabic-form="isolated" 
d="M1477 508v-221q0 -287 -322 -287h-752q-321 0 -321 287v221h295v-113q0 -30 16.5 -65t69.5 -35h633q53 0 70.5 35t17.5 65v113h293zM1026 940v-223h-582v223h177q-15 21 -23 43.5t-8 48.5q0 60 42 101t105 41q60 0 102 -41t42 -101q0 -26 -8.5 -48.5t-22.5 -43.5h176z
" />
    <glyph glyph-name="uniFE9A" unicode="&#x62b;" horiz-adv-x="1563" arabic-form="final" 
d="M1534 0q-123 0 -201 45q-20 10 -30 21q-7 -7 -14 -12t-15 -9q-84 -45 -203 -45h-668q-321 0 -321 289v219h295v-113q0 -30 16.5 -65t69.5 -35h608q39 0 61.5 28.5t22.5 71.5v113h293v-113q0 -39 20.5 -68.5t65.5 -31.5h29v-295h-29zM1028 940v-223h-582v223h177
q-15 21 -23 43.5t-8 48.5q0 60 42 101t105 41q60 0 102 -41t42 -101q0 -26 -8.5 -48.5t-22.5 -43.5h176z" />
    <glyph glyph-name="uniFE9B" unicode="&#x62b;" horiz-adv-x="559" arabic-form="initial" 
d="M498 287q0 -287 -322 -287h-176q-16 0 -32.5 9t-16.5 16v247q0 11 18.5 17t30.5 6h117q51 0 68.5 35t17.5 65v113h295v-221zM621 940v-223h-582v223h176q-14 21 -22.5 43.5t-8.5 48.5q0 60 42 101t106 41q59 0 101 -41t42 -101q0 -26 -8 -48.5t-23 -43.5h177z" />
    <glyph glyph-name="uniFE9C" unicode="&#x62b;" horiz-adv-x="602" arabic-form="medial" 
d="M532 0q-129 0 -200 45q-17 4 -31 21q-14 -15 -29 -21q-77 -45 -202 -45h-70q-16 0 -32.5 9t-16.5 16v247q0 11 18.5 17t30.5 6h70q39 0 61.5 27.5t22.5 72.5v113h292v-113q0 -37 20.5 -68.5t65.5 -31.5h70v-295h-70zM588 940v-223h-582v223h176q-14 21 -22 43.5t-8 48.5
q0 60 42 101t105 41q59 0 101 -41t42 -101q0 -26 -8 -48.5t-22 -43.5h176z" />
    <glyph glyph-name="uniFE9D" unicode="&#x62c;" horiz-adv-x="1018" arabic-form="isolated" 
d="M530 0q-28 0 -67 -15.5t-68 -47.5q-18 -23 -28.5 -55t-8.5 -63.5t17.5 -61t48.5 -46.5q53 -28 129 -23t147 42l136 -260q-74 -39 -152 -57.5t-154 -18.5q-79 0 -157 23.5t-141.5 69.5t-107.5 114.5t-56 156.5q-17 107 10.5 202t93.5 169q57 66 137 108t166 54
q-4 28 -10 52t-16 40q-13 16 -31.5 28.5t-59.5 12.5h-192v268v15h272q76 0 148.5 -35t115.5 -92q23 -31 40.5 -69t25.5 -87q4 -31 11 -55.5t24 -40.5q26 -33 110 -33h43v-295h-426zM512 -1024q-76 0 -127 51t-51 127q0 74 51 125t127 51q74 0 125 -51t51 -125
q0 -76 -51 -127t-125 -51z" />
    <glyph glyph-name="uniFE9E" unicode="&#x62c;" horiz-adv-x="938" arabic-form="final" 
d="M539 0h-2q-31 0 -70 -15.5t-68 -47.5q-18 -23 -28.5 -55t-8 -63.5t17.5 -61t48 -46.5q55 -28 130 -23t147 42l135 -260q-74 -39 -152 -57.5t-153 -18.5q-80 0 -158 23.5t-141.5 69.5t-107.5 114.5t-56 156.5q-13 101 10.5 190t79 159.5t136.5 118.5t181 65q-4 28 -9 52
t-17 40q-11 16 -31.5 28.5t-59.5 12.5h-192v268v15h272q76 0 149 -35t116 -92q22 -31 39.5 -69t25.5 -87q10 -66 40 -97.5t108 -31.5h18v-295h-399zM512 -1024q-76 0 -127 51t-51 127q0 74 51 125t127 51q74 0 125 -51t51 -125q0 -76 -51 -127t-125 -51z" />
    <glyph glyph-name="uniFE9F" unicode="&#x62c;" horiz-adv-x="1030" arabic-form="initial" 
d="M471 295q-2 55 -27 88q-12 16 -34.5 28.5t-51.5 12.5h-256v283h334q74 0 146.5 -35t115.5 -92q25 -31 41.5 -69t24.5 -87q4 -31 11 -55.5t24 -40.5q26 -33 112 -33h78v-295h-991q-16 0 -32.5 9t-16.5 16v247q0 11 18.5 17t30.5 6h473zM440 -473q-75 0 -126.5 51
t-51.5 127q0 74 51.5 125t126.5 51q74 0 125 -51t51 -125q0 -76 -51 -127t-125 -51z" />
    <glyph glyph-name="uniFEA0" unicode="&#x62c;" horiz-adv-x="954" arabic-form="medial" 
d="M0 0q-16 0 -32.5 9t-16.5 16v247q0 11 18.5 17t30.5 6h469q-4 59 -27 88q-12 16 -33.5 28.5t-50.5 12.5h-256v283h332q62 0 116 -21.5t98 -58.5t74 -89.5t40 -113.5q6 -33 15 -56.5t24.5 -39t41 -23.5t66.5 -10h43v-295h-952zM465 -473q-76 0 -127 51t-51 127
q0 74 51 125t127 51q74 0 125 -51t51 -125q0 -76 -51 -127t-125 -51z" />
    <glyph glyph-name="uniFEA1" unicode="&#x62d;" horiz-adv-x="1018" arabic-form="isolated" 
d="M530 0q-28 0 -67 -15.5t-68 -47.5q-18 -23 -28.5 -55t-8.5 -63.5t17.5 -61t48.5 -46.5q53 -28 129 -23t147 42l136 -260q-74 -39 -152 -57.5t-154 -18.5q-79 0 -157 23.5t-141.5 69.5t-107.5 114.5t-56 156.5q-17 107 10.5 202t93.5 169q57 66 137 108t166 54
q-4 28 -10 52t-16 40q-13 16 -31.5 28.5t-59.5 12.5h-192v268v15h272q76 0 148.5 -35t115.5 -92q23 -31 40.5 -69t25.5 -87q4 -31 11 -55.5t24 -40.5q26 -33 110 -33h43v-295h-426v0z" />
    <glyph glyph-name="uniFEA2" unicode="&#x62d;" horiz-adv-x="938" arabic-form="final" 
d="M539 0h-2q-31 0 -70 -15.5t-68 -47.5q-18 -23 -28.5 -55t-8 -63.5t17.5 -61t48 -46.5q55 -28 130 -23t147 42l135 -260q-74 -39 -152 -57.5t-153 -18.5q-80 0 -158 23.5t-141.5 69.5t-107.5 114.5t-56 156.5q-13 101 10.5 190t79 159.5t136.5 118.5t181 65q-4 28 -9 52
t-17 40q-11 16 -31.5 28.5t-59.5 12.5h-192v268v15h272q76 0 149 -35t116 -92q22 -31 39.5 -69t25.5 -87q10 -66 40 -97.5t108 -31.5h18v-295h-399z" />
    <glyph glyph-name="uniFEA3" unicode="&#x62d;" horiz-adv-x="1030" arabic-form="initial" 
d="M471 295q-2 55 -27 88q-12 16 -34.5 28.5t-51.5 12.5h-256v283h334q74 0 146.5 -35t115.5 -92q25 -31 41.5 -69t24.5 -87q4 -31 11 -55.5t24 -40.5q26 -33 112 -33h78v-295h-991q-16 0 -32.5 9t-16.5 16v247q0 11 18.5 17t30.5 6h473z" />
    <glyph glyph-name="uniFEA4" unicode="&#x62d;" horiz-adv-x="954" arabic-form="medial" 
d="M0 0q-16 0 -32.5 9t-16.5 16v247q0 11 18.5 17t30.5 6h469q-4 59 -27 88q-12 16 -33.5 28.5t-50.5 12.5h-256v283h332q62 0 116 -21.5t98 -58.5t74 -89.5t40 -113.5q6 -33 15 -56.5t24.5 -39t41 -23.5t66.5 -10h43v-295h-952z" />
    <glyph glyph-name="uniFEA5" unicode="&#x62e;" horiz-adv-x="1018" arabic-form="isolated" 
d="M530 0q-28 0 -67 -15.5t-68 -47.5q-18 -23 -28.5 -55t-8.5 -63.5t17.5 -61t48.5 -46.5q53 -28 129 -23t147 42l136 -260q-74 -39 -152 -57.5t-154 -18.5q-79 0 -157 23.5t-141.5 69.5t-107.5 114.5t-56 156.5q-17 107 10.5 202t93.5 169q57 66 137 108t166 54
q-4 28 -10 52t-16 40q-13 16 -31.5 28.5t-59.5 12.5h-192v268v15h272q76 0 148.5 -35t115.5 -92q23 -31 40.5 -69t25.5 -87q4 -31 11 -55.5t24 -40.5q26 -33 110 -33h43v-295h-426zM485 819q-75 0 -126.5 51.5t-51.5 126.5q0 74 51.5 125.5t126.5 51.5q74 0 125.5 -51.5
t51.5 -125.5q0 -75 -51.5 -126.5t-125.5 -51.5z" />
    <glyph glyph-name="uniFEA6" unicode="&#x62e;" horiz-adv-x="938" arabic-form="final" 
d="M539 0h-2q-31 0 -70 -15.5t-68 -47.5q-18 -23 -28.5 -55t-8 -63.5t17.5 -61t48 -46.5q55 -28 130 -23t147 42l135 -260q-74 -39 -152 -57.5t-153 -18.5q-80 0 -158 23.5t-141.5 69.5t-107.5 114.5t-56 156.5q-13 101 10.5 190t79 159.5t136.5 118.5t181 65q-4 28 -9 52
t-17 40q-11 16 -31.5 28.5t-59.5 12.5h-192v268v15h272q76 0 149 -35t116 -92q22 -31 39.5 -69t25.5 -87q10 -66 40 -97.5t108 -31.5h18v-295h-399zM459 815q-76 0 -127 51.5t-51 126.5q0 74 51 125t127 51q73 0 124.5 -51t51.5 -125q0 -75 -51.5 -126.5t-124.5 -51.5z" />
    <glyph glyph-name="uniFEA7" unicode="&#x62e;" horiz-adv-x="1030" arabic-form="initial" 
d="M471 295q-2 55 -27 88q-12 16 -34.5 28.5t-51.5 12.5h-256v283h334q74 0 146.5 -35t115.5 -92q25 -31 41.5 -69t24.5 -87q4 -31 11 -55.5t24 -40.5q26 -33 112 -33h78v-295h-991q-16 0 -32.5 9t-16.5 16v247q0 11 18.5 17t30.5 6h473zM440 815q-75 0 -126.5 51.5
t-51.5 126.5q0 74 51.5 125t126.5 51q74 0 125 -51t51 -125q0 -75 -51 -126.5t-125 -51.5z" />
    <glyph glyph-name="uniFEA8" unicode="&#x62e;" horiz-adv-x="954" arabic-form="medial" 
d="M0 0q-16 0 -32.5 9t-16.5 16v247q0 11 18.5 17t30.5 6h469q-4 59 -27 88q-12 16 -33.5 28.5t-50.5 12.5h-256v283h332q62 0 116 -21.5t98 -58.5t74 -89.5t40 -113.5q6 -33 15 -56.5t24.5 -39t41 -23.5t66.5 -10h43v-295h-952zM465 815q-76 0 -127 51.5t-51 126.5
q0 74 51 125t127 51q74 0 125 -51t51 -125q0 -75 -51 -126.5t-125 -51.5z" />
    <glyph glyph-name="uniFEA9" unicode="&#x62f;" horiz-adv-x="840" arabic-form="isolated" 
d="M745 121q-24 -39 -60 -62.5t-78 -37t-87 -17.5t-90 -4h-346v295h278q70 0 70 55q0 23 -16 60l-117 237l266 129l129 -266q29 -59 56.5 -128t27.5 -140q0 -31 -7 -61.5t-26 -59.5z" />
    <glyph glyph-name="uniFEAA" unicode="&#x62f;" horiz-adv-x="885" arabic-form="final" 
d="M848 0q-125 0 -215 51q-55 -35 -118.5 -43t-117.5 -8h-313v295h254q53 0 72.5 16.5t19.5 42.5q0 23 -10 58l-70 239l281 82l110 -375q2 -10 7.5 -20t16.5 -20.5t30.5 -16.5t52.5 -6h37v-295h-37z" />
    <glyph glyph-name="uniFEAB" unicode="&#x630;" horiz-adv-x="840" arabic-form="isolated" 
d="M745 121q-24 -39 -60 -62.5t-78 -37t-87 -17.5t-90 -4h-346v295h278q70 0 70 55q0 23 -16 60l-117 237l266 129l129 -266q29 -59 56.5 -128t27.5 -140q0 -31 -7 -61.5t-26 -59.5zM448 925q-76 0 -127 51t-51 127q0 74 51 125t127 51q74 0 125 -51t51 -125q0 -76 -51 -127
t-125 -51z" />
    <glyph glyph-name="uniFEAC" unicode="&#x630;" horiz-adv-x="885" arabic-form="final" 
d="M848 0q-125 0 -215 51q-55 -35 -118.5 -43t-117.5 -8h-313v295h254q53 0 72.5 16.5t19.5 42.5q0 23 -10 58l-70 239l281 82l110 -375q2 -10 7.5 -20t16.5 -20.5t30.5 -16.5t52.5 -6h37v-295h-37zM506 857q-76 0 -127 51t-51 127q0 74 51 125t127 51q74 0 125 -51t51 -125
q0 -76 -51 -127t-125 -51z" />
    <glyph glyph-name="uniFEAD" unicode="&#x631;" horiz-adv-x="718" arabic-form="isolated" 
d="M106 -168q61 49 107 93t79 101.5t52.5 138.5t27.5 204l295 -19q-10 -151 -37 -259.5t-73 -193.5t-112.5 -155t-154.5 -139z" />
    <glyph glyph-name="uniFEAE" unicode="&#x631;" horiz-adv-x="718" arabic-form="final" 
d="M618 0q-25 -63 -56.5 -116.5t-70.5 -101.5t-86 -92t-105 -91l-190 233q55 43 99 84t77 92t54.5 120t31.5 167h346v-295h-100z" />
    <glyph glyph-name="uniFEAF" unicode="&#x632;" horiz-adv-x="718" arabic-form="isolated" 
d="M106 -168q61 49 107 93t79 101.5t52.5 138.5t27.5 204l295 -19q-10 -151 -37 -259.5t-73 -193.5t-112.5 -155t-154.5 -139zM538 506q-76 0 -127 51t-51 127q0 74 51 125t127 51q74 0 125 -51t51 -125q0 -76 -51 -127t-125 -51z" />
    <glyph glyph-name="uniFEB0" unicode="&#x632;" horiz-adv-x="718" arabic-form="final" 
d="M618 0q-25 -63 -56.5 -116.5t-70.5 -101.5t-86 -92t-105 -91l-190 233q55 43 99 84t77 92t54.5 120t31.5 167h346v-295h-100zM528 506q-76 0 -127 51t-51 127q0 74 51 125t127 51q73 0 124.5 -51t51.5 -125q0 -76 -51.5 -127t-124.5 -51z" />
    <glyph glyph-name="uniFEB1" unicode="&#x633;" horiz-adv-x="2341" arabic-form="isolated" 
d="M537 -57q75 -11 125.5 20t75 84t27.5 119.5t-11 128.5h1454v-295h-1182q-25 -115 -95.5 -192.5t-167.5 -116.5t-208 -39t-213 43t-167.5 132t-84 202.5t12 239.5t120.5 243l232 -180q-47 -56 -65.5 -119t-9.5 -120.5t48 -98.5t109 -51z" />
    <glyph glyph-name="uniFEB2" unicode="&#x633;" horiz-adv-x="2343" arabic-form="final" 
d="M1026 0q-25 -115 -96.5 -192.5t-167.5 -116.5t-207 -39t-213 43t-167.5 132t-84 202.5t12 239.5t118.5 243l234 -180q-47 -56 -65.5 -119t-9.5 -120.5t49 -98.5t110 -51q75 -11 124.5 20t74 84t27.5 119.5t-11 128.5h1589v-295h-1317z" />
    <glyph glyph-name="uniFEB3" unicode="&#x633;" horiz-adv-x="1231" arabic-form="initial" 
d="M1169 295v-295h-1169q-16 0 -32.5 9t-16.5 16v247q0 11 18.5 17t30.5 6h1169z" />
    <glyph glyph-name="uniFEB4" unicode="&#x633;" horiz-adv-x="1190" arabic-form="medial" 
d="M0 0q-16 0 -32.5 9t-16.5 16v247q0 11 18.5 17t30.5 6h1190v-295h-1190z" />
    <glyph glyph-name="uniFEB5" unicode="&#x634;" horiz-adv-x="2306" arabic-form="isolated" 
d="M537 -57q75 -11 125.5 20t75 84t27.5 119.5t-11 128.5h1454v-295h-1182q-25 -115 -95.5 -192.5t-167.5 -116.5t-208 -39t-213 43t-167.5 132t-84 202.5t12 239.5t120.5 243l232 -180q-47 -56 -65.5 -119t-9.5 -120.5t48 -98.5t109 -51zM1778 735v-223h-582v223h176
q-14 21 -22.5 43.5t-8.5 48.5q0 60 42 101t106 41q59 0 101 -41t42 -101q0 -26 -8 -48.5t-22 -43.5h176z" />
    <glyph glyph-name="uniFEB6" unicode="&#x634;" horiz-adv-x="2343" arabic-form="final" 
d="M1026 0q-25 -115 -96.5 -192.5t-167.5 -116.5t-207 -39t-213 43t-167.5 132t-84 202.5t12 239.5t118.5 243l234 -180q-47 -56 -65.5 -119t-9.5 -120.5t49 -98.5t110 -51q75 -11 124.5 20t74 84t27.5 119.5t-11 128.5h1589v-295h-1317zM1788 735v-223h-582v223h176
q-14 21 -22 43.5t-8 48.5q0 60 42 101t105 41q60 0 101.5 -41t41.5 -101q0 -26 -8 -48.5t-22 -43.5h176z" />
    <glyph glyph-name="uniFEB7" unicode="&#x634;" horiz-adv-x="1231" arabic-form="initial" 
d="M1169 295v-295h-1169q-16 0 -32.5 9t-16.5 16v247q0 11 18.5 17t30.5 6h1169zM854 735v-223h-582v223h177q-15 21 -23 43.5t-8 48.5q0 60 42 101t105 41q60 0 102 -41t42 -101q0 -26 -8.5 -48.5t-22.5 -43.5h176z" />
    <glyph glyph-name="uniFEB8" unicode="&#x634;" horiz-adv-x="1190" arabic-form="medial" 
d="M0 0q-16 0 -32.5 9t-16.5 16v247q0 11 18.5 17t30.5 6h1190v-295h-1190zM872 735v-223h-581v223h176q-14 21 -22.5 43.5t-8.5 48.5q0 60 42 101t106 41q59 0 101 -41t42 -101q0 -26 -8 -48.5t-23 -43.5h176z" />
    <glyph glyph-name="uniFEB9" unicode="&#x635;" horiz-adv-x="1917" arabic-form="isolated" 
d="M1722 655q37 -45 67 -111.5t47 -138t18 -141t-19 -121.5q-18 -47 -52 -75.5t-79 -44t-98.5 -19.5t-114.5 -4h-457q-18 -106 -79.5 -184t-149.5 -124t-192.5 -58.5t-206.5 14.5q-107 26 -184 105t-111.5 188.5t-23.5 239.5t83 257l258 -143q-39 -62 -48 -128.5t8.5 -121.5
t62.5 -90t114 -35q86 0 132 47t57 113q10 53 3 109.5t-26 105.5h395l-63 53l-105 86q31 37 82.5 93.5t114 111.5t131 99t133.5 55q82 14 160 -22t143 -116zM1491 295q29 0 45 5t23 9q2 21 -7.5 50.5t-24 57t-32.5 51.5t-33 32q-24 -11 -69 -46.5t-97 -84.5
q-16 -19 -33.5 -37.5t-35.5 -36.5h264z" />
    <glyph glyph-name="uniFEBA" unicode="&#x635;" horiz-adv-x="1935" arabic-form="final" 
d="M1235 0h-203q-16 -106 -78.5 -184t-149.5 -124t-191.5 -58.5t-206.5 14.5q-109 26 -186 105t-111.5 188.5t-22.5 239.5t84 257l256 -143q-39 -62 -48 -128.5t8 -121.5t62.5 -90t114.5 -35q88 0 132 47t59 113q10 53 3 109.5t-28 105.5h395l-63 53l-103 86
q31 37 82.5 93.5t114 111.5t131 99t131.5 55q84 14 162 -22t143 -116q25 -30 46.5 -72t39 -90.5t28.5 -98.5t15 -99h84v-295h-700zM1294 369q-16 -19 -33.5 -37.5t-35.5 -36.5h266q27 0 43 5t25 9q0 21 -9.5 50.5t-24 57t-31.5 51.5t-32 32q-26 -11 -70 -46.5t-98 -84.5z
" />
    <glyph glyph-name="uniFEBB" unicode="&#x635;" horiz-adv-x="1501" arabic-form="initial" 
d="M106 295q44 0 62 24.5t22 51.5q0 6 1.5 12t1.5 12v56h292v-56q0 -16 2 -24q5 -27 23 -51.5t59 -24.5h144l-168 139q30 37 81.5 93.5t114 111.5t131 99t134.5 55q81 14 159 -22t144 -116q34 -45 64 -111.5t47.5 -138t19.5 -141t-19 -121.5q-18 -47 -52 -75.5t-79 -44
t-98 -19.5t-115 -4h-508q-120 0 -202 47q-7 4 -15 8t-14 11q-12 -13 -31 -19q-76 -47 -201 -47h-106q-16 0 -32.5 9t-16.5 16v247q0 11 18.5 17t30.5 6h106zM1077 295q29 0 45.5 5t22.5 9q0 21 -9.5 50.5t-23.5 57t-31.5 51.5t-31.5 32q-17 -6 -42.5 -24.5t-57 -46.5
t-66.5 -62.5t-68 -71.5h262z" />
    <glyph glyph-name="uniFEBC" unicode="&#x635;" horiz-adv-x="1526" arabic-form="medial" 
d="M573 0q-124 0 -202 47q-17 4 -29 19q-8 -7 -14 -11t-17 -8q-75 -47 -202 -47h-109q-16 0 -32.5 9t-16.5 16v247q0 11 18.5 17t30.5 6h109q43 0 62 24.5t24 51.5q0 6 1 12t1 12v56h290v-56q0 -16 2 -24q5 -27 23 -51.5t61 -24.5h142l-166 139q31 37 82 93.5t113.5 111.5
t131 99t132.5 55q84 14 161.5 -22t143.5 -116q24 -30 45.5 -72t39 -90.5t29 -98.5t15.5 -99h84v-295h-953zM1081 295q27 0 43.5 5t24.5 9q0 21 -9.5 50.5t-23.5 57t-31.5 51.5t-31.5 32q-17 -6 -43.5 -24.5t-58 -46.5t-66.5 -62.5t-68 -71.5h264z" />
    <glyph glyph-name="uniFEBD" unicode="&#x636;" horiz-adv-x="1917" arabic-form="isolated" 
d="M1722 655q37 -45 67 -111.5t47 -138t18 -141t-19 -121.5q-18 -47 -52 -75.5t-79 -44t-98.5 -19.5t-114.5 -4h-457q-18 -106 -79.5 -184t-149.5 -124t-192.5 -58.5t-206.5 14.5q-107 26 -184 105t-111.5 188.5t-23.5 239.5t83 257l258 -143q-39 -62 -48 -128.5t8.5 -121.5
t62.5 -90t114 -35q86 0 132 47t57 113q10 53 3 109.5t-26 105.5h395l-63 53l-105 86q31 37 82.5 93.5t114 111.5t131 99t133.5 55q82 14 160 -22t143 -116zM1491 295q29 0 45 5t23 9q2 21 -7.5 50.5t-24 57t-32.5 51.5t-33 32q-24 -11 -69 -46.5t-97 -84.5
q-16 -19 -33.5 -37.5t-35.5 -36.5h264zM1067 819q-76 0 -127 51.5t-51 126.5q0 74 51 125.5t127 51.5q74 0 125 -51.5t51 -125.5q0 -75 -51 -126.5t-125 -51.5z" />
    <glyph glyph-name="uniFEBE" unicode="&#x636;" horiz-adv-x="1935" arabic-form="final" 
d="M1235 0h-203q-16 -106 -78.5 -184t-149.5 -124t-191.5 -58.5t-206.5 14.5q-109 26 -186 105t-111.5 188.5t-22.5 239.5t84 257l256 -143q-39 -62 -48 -128.5t8 -121.5t62.5 -90t114.5 -35q88 0 132 47t59 113q10 53 3 109.5t-28 105.5h395l-63 53l-103 86
q31 37 82.5 93.5t114 111.5t131 99t131.5 55q84 14 162 -22t143 -116q25 -30 46.5 -72t39 -90.5t28.5 -98.5t15 -99h84v-295h-700zM1294 369q-16 -19 -33.5 -37.5t-35.5 -36.5h266q27 0 43 5t25 9q0 21 -9.5 50.5t-24 57t-31.5 51.5t-32 32q-26 -11 -70 -46.5t-98 -84.5z
M1063 815q-76 0 -127 51.5t-51 126.5q0 74 51 125t127 51q74 0 125 -51t51 -125q0 -75 -51 -126.5t-125 -51.5z" />
    <glyph glyph-name="uniFEBF" unicode="&#x636;" horiz-adv-x="1501" arabic-form="initial" 
d="M106 295q44 0 62 24.5t22 51.5q0 6 1.5 12t1.5 12v56h292v-56q0 -16 2 -24q5 -27 23 -51.5t59 -24.5h144l-168 139q30 37 81.5 93.5t114 111.5t131 99t134.5 55q81 14 159 -22t144 -116q34 -45 64 -111.5t47.5 -138t19.5 -141t-19 -121.5q-18 -47 -52 -75.5t-79 -44
t-98 -19.5t-115 -4h-508q-120 0 -202 47q-7 4 -15 8t-14 11q-12 -13 -31 -19q-76 -47 -201 -47h-106q-16 0 -32.5 9t-16.5 16v247q0 11 18.5 17t30.5 6h106zM1077 295q29 0 45.5 5t22.5 9q0 21 -9.5 50.5t-23.5 57t-31.5 51.5t-31.5 32q-17 -6 -42.5 -24.5t-57 -46.5
t-66.5 -62.5t-68 -71.5h262zM651 811q-76 0 -127 51t-51 127q0 74 51 125t127 51q74 0 125 -51t51 -125q0 -76 -51 -127t-125 -51z" />
    <glyph glyph-name="uniFEC0" unicode="&#x636;" horiz-adv-x="1526" arabic-form="medial" 
d="M573 0q-124 0 -202 47q-17 4 -29 19q-8 -7 -14 -11t-17 -8q-75 -47 -202 -47h-109q-16 0 -32.5 9t-16.5 16v247q0 11 18.5 17t30.5 6h109q43 0 62 24.5t24 51.5q0 6 1 12t1 12v56h290v-56q0 -16 2 -24q5 -27 23 -51.5t61 -24.5h142l-166 139q31 37 82 93.5t113.5 111.5
t131 99t132.5 55q84 14 161.5 -22t143.5 -116q24 -30 45.5 -72t39 -90.5t29 -98.5t15.5 -99h84v-295h-953zM1081 295q27 0 43.5 5t24.5 9q0 21 -9.5 50.5t-23.5 57t-31.5 51.5t-31.5 32q-17 -6 -43.5 -24.5t-58 -46.5t-66.5 -62.5t-68 -71.5h264zM651 811q-76 0 -127 51
t-51 127q0 74 51 125t127 51q74 0 125 -51t51 -125q0 -76 -51 -127t-125 -51z" />
    <glyph glyph-name="uniFEC1" unicode="&#x637;" horiz-adv-x="1145" arabic-form="isolated" 
d="M948 655q35 -45 65.5 -111.5t48 -137t20.5 -140t-17 -121.5q-18 -47 -52 -74.5t-80 -44t-100.5 -21.5t-115.5 -5h-635v295h268l-166 137q27 33 67 79t91 93v397h295v-213q49 11 94 3.5t85 -27t73 -48t59 -61.5zM717 295q28 0 44.5 5t22.5 9q0 21 -9 49.5t-23.5 57t-32 51
t-31.5 31.5q-16 -6 -43 -24.5t-58.5 -46.5t-66.5 -61.5t-67 -70.5h264z" />
    <glyph glyph-name="uniFEC2" unicode="&#x637;" horiz-adv-x="1141" arabic-form="final" 
d="M82 0v2v293h266l-166 135q27 33 67 78t89 92v393h291v-209q100 19 179 -25t132 -108q49 -63 86 -161.5t43 -194.5h72v-295h-1059zM682 496q-16 -7 -43 -25t-57.5 -45t-65.5 -60.5t-67 -70.5h262q26 0 42.5 4t24.5 8q0 21 -9 49.5t-23.5 57t-32 51t-31.5 31.5z" />
    <glyph glyph-name="uniFEC3" unicode="&#x637;" horiz-adv-x="997" arabic-form="initial" 
d="M205 295l-170 139q26 31 67 77t93 93v400h294v-213q50 10 95 1.5t84 -28t71.5 -48t59.5 -61.5q37 -45 67.5 -110.5t49 -136t19.5 -140t-20 -121.5q-18 -47 -52 -75.5t-79 -44t-100 -21.5t-117 -6h-567q-16 0 -32.5 9t-16.5 16v247q0 11 18.5 17t30.5 6h205zM567 295
q29 0 45.5 5t24.5 9q0 21 -9.5 50.5t-23.5 57t-31.5 51.5t-33.5 32q-35 -13 -100.5 -71t-135.5 -134h264z" />
    <glyph glyph-name="uniFEC4" unicode="&#x637;" horiz-adv-x="993" arabic-form="medial" 
d="M0 0q-16 0 -32.5 9t-16.5 16v247q0 11 18.5 17t30.5 6h203l-166 135q26 33 67 78t91 92v393h292v-209q50 9 94 1.5t82.5 -27t71.5 -48t58 -59.5q51 -63 90 -161.5t45 -194.5h67v-295h-995zM553 295q27 0 43 4t22 8q3 21 -6.5 49.5t-24 57t-31.5 51t-32 31.5
q-16 -7 -42.5 -25t-57.5 -45t-65.5 -60.5t-67.5 -70.5h262z" />
    <glyph glyph-name="uniFEC5" unicode="&#x638;" horiz-adv-x="1145" arabic-form="isolated" 
d="M948 655q35 -45 65.5 -111.5t48 -137t20.5 -140t-17 -121.5q-18 -47 -52 -74.5t-80 -44t-100.5 -21.5t-115.5 -5h-635v295h268l-166 137q27 33 67 79t91 93v397h295v-213q49 11 94 3.5t85 -27t73 -48t59 -61.5zM717 295q28 0 44.5 5t22.5 9q0 21 -9 49.5t-23.5 57t-32 51
t-31.5 31.5q-16 -6 -43 -24.5t-58.5 -46.5t-66.5 -61.5t-67 -70.5h264zM922 874q-76 0 -127.5 51.5t-51.5 127.5q0 73 51.5 124.5t127.5 51.5q73 0 124.5 -51.5t51.5 -124.5q0 -76 -51.5 -127.5t-124.5 -51.5z" />
    </font>
</defs>
</svg>
